<svg width="635" height="635" viewBox="0 0 635 635" fill="none" xmlns="http://www.w3.org/2000/svg">
<path d="M519.662 149.439C510.704 163.863 491.557 168.183 476.892 159.076C462.227 149.969 457.609 130.891 466.567 116.467C475.524 102.043 494.672 97.7234 509.337 106.831C524.002 115.938 528.619 135.016 519.662 149.439Z" stroke="#00E991" stroke-width="0.5"/>
<path d="M478.549 137.784L490.386 114.41L511.624 127.599L495.921 148.567L485.693 145.633L478.549 137.784Z" fill="#E44F26"/>
<path d="M487.714 143.356L495.796 145.686L508.87 128.243L500.375 122.968L487.714 143.356Z" fill="#F1662A"/>
<path d="M495.398 130.981L491.812 128.754L493.281 125.835L497.115 128.216L498.792 125.516L491.996 121.295L491.611 122.061L487.656 129.915L493.721 133.682L495.398 130.981ZM491.043 137.994L491.029 137.99L488.514 135.304L489.659 133.031L486.938 131.341L484.685 135.815L489.284 140.8L489.298 140.804L491.043 137.994Z" fill="#EBEBEB"/>
<path d="M494.549 130.455L492.872 133.155L496.212 135.23L493.723 138.537L490.192 137.47L488.447 140.28L494.962 142.199L495.286 141.768L500.338 135.055L500.855 134.371L494.549 130.455ZM497.943 124.989L496.266 127.689L502.819 131.759L503.25 131.186L504.224 129.894L504.739 129.209L497.943 124.989Z" fill="white"/>
<path d="M138.215 162.059C144.552 179.585 135.274 199.011 117.482 205.444C99.6899 211.878 80.1334 202.877 73.7964 185.352C67.4594 167.826 76.7374 148.4 94.5292 141.966C112.321 135.533 131.878 144.533 138.215 162.059Z" stroke="#00E991" stroke-width="0.5"/>
<path d="M87 165.463L115.212 155.262L125.413 183.474L97.2011 193.675L87 165.463Z" fill="#F7DF1E"/>
<path d="M98.8863 182.21L100.598 180.118C101.286 180.702 101.895 181.187 102.814 180.854C103.695 180.536 104.128 179.995 103.649 178.673L100.398 169.682L103.08 168.712L106.344 177.741C107.335 180.48 106.157 182.315 103.782 183.174C101.637 183.949 99.9965 183.304 98.8863 182.21ZM108.265 178.499L109.997 176.463C110.907 177.181 111.9 177.591 113.221 177.113C114.332 176.711 114.843 175.907 114.569 175.151C114.241 174.245 113.398 174.187 111.981 174.101L111.208 174.06C108.98 173.948 107.328 173.391 106.549 171.238C105.832 169.255 106.818 167.19 109.212 166.324C110.916 165.708 112.354 165.85 113.788 167.061L112.179 169.139C111.425 168.493 110.811 168.352 110.045 168.629C109.26 168.913 108.939 169.584 109.172 170.226C109.458 171.019 110.073 171.16 111.399 171.236L112.172 171.277C114.8 171.416 116.438 171.934 117.237 174.144C118.098 176.524 116.673 178.513 114.125 179.434C111.636 180.335 109.604 179.745 108.265 178.499Z" fill="black"/>
</svg>
