<svg width="700" height="700" viewBox="0 0 700 700" fill="none" xmlns="http://www.w3.org/2000/svg">
<g clip-path="url(#clip0_15_59)">
<circle cx="35.2555" cy="400.256" r="31.0502" transform="rotate(-12.314 35.2555 400.256)" stroke="#00E991" stroke-width="0.5"/>
<g clip-path="url(#clip1_15_59)">
<path d="M35.9011 391.2L36.0152 391.248C37.3544 391.801 38.4299 392.727 39.2706 393.945C39.4476 394.124 39.385 394.259 39.1368 394.385L38.7173 394.603C37.7693 395.096 37.02 395.5 36.0852 395.99L35.552 396.269C35.3594 396.366 35.2982 396.356 35.0242 396.144L34.9855 396.114C34.5952 395.812 34.3094 395.616 33.851 395.486L33.7629 395.462C32.2245 395.048 30.9314 395.548 29.8671 396.675C28.5966 398.016 28.156 399.683 28.5859 401.547C29.0108 403.388 30.5499 404.647 32.3388 404.523C33.8761 404.405 35.0059 403.578 35.7364 402.186C35.8785 401.889 35.9936 401.574 36.1424 401.203L31.9078 402.127C31.4471 402.228 31.2719 401.952 31.3399 401.526L31.3748 401.321C31.5063 400.57 31.7272 399.483 31.8874 398.854L31.9227 398.718C31.9684 398.563 32.0817 398.343 32.3778 398.278L39.439 396.737C39.5255 395.611 39.8222 394.5 40.3022 393.406C41.4205 390.841 43.0995 389.266 45.6048 388.212C47.7522 387.308 49.909 387.079 52.115 388.023C54.1204 388.891 55.5633 390.341 56.332 392.493C57.3849 395.527 57.0832 398.251 55.5161 400.865C54.4053 402.727 52.8396 404.084 50.8947 404.968C50.3275 405.213 49.7401 405.365 49.1847 405.559C47.178 405.949 45.2258 405.746 43.3877 404.697C42.0931 403.951 41.0856 402.907 40.4092 401.583C40.2698 402.19 40.0755 402.781 39.8288 403.347C38.7275 405.884 36.9622 407.695 34.4317 408.635C32.3469 409.404 30.2545 409.401 28.197 408.4C26.2913 407.462 24.997 405.956 24.2923 403.886C23.4581 401.434 23.6666 399.019 24.6817 396.719C25.7712 394.233 27.5365 392.422 29.954 391.387C31.8943 390.56 33.8859 390.374 35.9012 391.2M47.0606 392.228L46.994 392.259C45.0592 393.189 44.0399 394.838 44.0306 397.112C44.0284 398.998 45.2601 400.639 47.0011 401.032C48.3287 401.323 49.5204 400.99 50.5474 400.113C52.0743 398.789 52.6954 397.106 52.3721 395.098C52.2846 394.803 52.2342 394.572 52.1399 394.351C51.2565 392.178 49.0187 391.316 47.0606 392.228ZM22.0415 402.106C22.1293 402.086 22.1883 402.146 22.2085 402.238L22.2854 402.802C22.3056 402.894 22.2329 402.982 22.1671 402.997L17.3788 404.018C17.291 404.037 17.254 403.972 17.2827 403.894L17.464 403.25C17.4928 403.171 17.5655 403.083 17.6532 403.063L22.0415 402.106ZM22.0609 399.878C22.1486 399.858 22.2077 399.918 22.2009 399.992L22.1461 400.584C22.1444 400.681 22.0667 400.746 21.9789 400.766L11.6056 403.054C11.5178 403.073 11.4858 403.032 11.5145 402.953L11.8393 402.23C11.8682 402.151 11.9677 402.081 12.0555 402.062L22.0609 399.878ZM22.7385 397.506C22.8263 397.487 22.8633 397.551 22.8346 397.63L22.5925 398.311C22.5637 398.39 22.4691 398.483 22.4033 398.498L14.4555 400.208C14.3676 400.227 14.3356 400.186 14.3644 400.107L14.6892 399.384C14.718 399.305 14.8176 399.235 14.9053 399.216L22.7385 397.506Z" fill="#00ACD7"/>
</g>
<path d="M457.75 35C457.75 52.5314 443.315 66.75 425.5 66.75C407.685 66.75 393.25 52.5314 393.25 35C393.25 17.4686 407.685 3.25 425.5 3.25C443.315 3.25 457.75 17.4686 457.75 35Z" stroke="#00E991" stroke-width="0.5"/>
<g clip-path="url(#clip2_15_59)">
<path d="M435.488 30.0754C435.158 29.9605 434.826 29.854 434.49 29.7561C434.547 29.5225 434.599 29.2918 434.645 29.0651C435.4 25.3426 434.906 22.3436 433.219 21.3562C431.602 20.4097 428.957 21.3967 426.286 23.7566C426.023 23.9896 425.766 24.2293 425.514 24.4755C425.346 24.3118 425.175 24.1513 425.001 23.994C422.201 21.4707 419.395 20.4072 417.71 21.3974C416.095 22.347 415.616 25.1662 416.296 28.6941C416.364 29.0435 416.44 29.3911 416.525 29.7366C416.128 29.8511 415.745 29.9731 415.378 30.1029C412.096 31.2646 410 33.0851 410 34.9735C410 36.9238 412.25 38.8801 415.669 40.0662C415.946 40.162 416.225 40.2507 416.507 40.3324C416.415 40.7045 416.334 41.0791 416.263 41.4557C415.615 44.9224 416.121 47.675 417.733 48.6185C419.397 49.5929 422.19 48.5915 424.91 46.1777C425.131 45.9815 425.347 45.7797 425.557 45.5725C425.829 45.8391 426.109 46.0979 426.395 46.3487C429.03 48.6503 431.632 49.5796 433.242 48.6335C434.905 47.6563 435.445 44.6993 434.743 41.1017C434.688 40.8198 434.626 40.5394 434.557 40.2606C434.754 40.2016 434.946 40.1409 435.134 40.0777C438.688 38.8824 441 36.9499 441 34.9735C441 33.0782 438.836 31.2454 435.488 30.0754ZM434.717 38.8016C434.548 38.8585 434.374 38.9136 434.197 38.967C433.804 37.706 433.275 36.3653 432.627 34.98C433.245 33.6278 433.754 32.3041 434.136 31.0515C434.453 31.1446 434.761 31.2429 435.057 31.3465C437.926 32.3491 439.676 33.8313 439.676 34.9735C439.676 36.19 437.786 37.7694 434.717 38.8016ZM433.444 41.3628C433.754 42.9536 433.799 44.3919 433.593 45.5163C433.409 46.5267 433.037 47.2003 432.578 47.4701C431.601 48.0442 429.512 47.298 427.259 45.3296C426.993 45.0964 426.733 44.8558 426.479 44.608C427.353 43.6382 428.226 42.5108 429.078 41.2586C430.577 41.1236 431.992 40.9028 433.276 40.6015C433.34 40.8606 433.396 41.1144 433.444 41.3628ZM420.569 47.3709C419.614 47.713 418.854 47.7229 418.394 47.4539C417.417 46.8814 417.01 44.6712 417.564 41.7065C417.63 41.3562 417.706 41.0078 417.791 40.6617C419.061 40.9469 420.466 41.152 421.968 41.2756C422.826 42.5009 423.724 43.6271 424.629 44.6133C424.437 44.8022 424.24 44.9863 424.039 45.1655C422.836 46.2328 421.631 46.9901 420.569 47.3709ZM416.097 38.7941C414.585 38.2696 413.337 37.5879 412.481 36.844C411.713 36.1757 411.324 35.5119 411.324 34.9735C411.324 33.8275 413.007 32.3658 415.814 31.3724C416.155 31.252 416.511 31.1382 416.881 31.0315C417.269 32.3125 417.778 33.6518 418.392 35.0062C417.77 36.3806 417.254 37.7413 416.862 39.0374C416.605 38.9627 416.35 38.8816 416.097 38.7941ZM417.596 28.4358C417.013 25.4133 417.4 23.1332 418.374 22.561C419.411 21.9515 421.704 22.8205 424.121 24.9993C424.279 25.1417 424.434 25.287 424.587 25.4351C423.686 26.417 422.796 27.5348 421.946 28.7529C420.488 28.89 419.092 29.1103 417.809 29.4055C417.73 29.0842 417.659 28.7608 417.596 28.4358ZM430.968 31.7881C430.665 31.2566 430.351 30.7319 430.025 30.2142C431.014 30.3411 431.962 30.5097 432.852 30.7157C432.585 31.5851 432.252 32.4939 431.86 33.4258C431.573 32.8739 431.276 32.3279 430.968 31.7881ZM425.515 26.3961C426.126 27.0679 426.737 27.818 427.339 28.6318C426.119 28.5732 424.896 28.573 423.675 28.631C424.278 27.8247 424.895 27.0757 425.515 26.3961ZM420.027 31.7972C419.723 32.3326 419.431 32.8752 419.152 33.4245C418.766 32.496 418.436 31.583 418.167 30.7013C419.051 30.5005 419.994 30.3362 420.977 30.2116C420.648 30.7324 420.331 31.2612 420.027 31.7972ZM421.005 39.8309C419.99 39.7159 419.033 39.5601 418.148 39.3647C418.422 38.4672 418.759 37.5348 419.153 36.5864C419.434 37.1361 419.727 37.679 420.032 38.2147C420.346 38.7655 420.671 39.3049 421.005 39.8309ZM425.551 43.6455C424.924 42.9581 424.298 42.1975 423.686 41.3795C424.28 41.4031 424.885 41.4152 425.5 41.4152C426.132 41.4152 426.756 41.4008 427.371 41.373C426.768 42.2058 426.158 42.9674 425.551 43.6455ZM431.872 36.5379C432.287 37.4968 432.636 38.4243 432.913 39.3064C432.014 39.5146 431.044 39.6823 430.022 39.8068C430.349 39.2795 430.666 38.7457 430.973 38.2055C431.285 37.6565 431.585 37.1005 431.872 36.5379ZM429.826 37.5338C429.356 38.3619 428.86 39.1743 428.339 39.9697C427.394 40.0377 426.447 40.0714 425.5 40.0709C424.535 40.0709 423.597 40.0404 422.693 39.9809C422.158 39.1874 421.653 38.3736 421.178 37.5412C420.706 36.7133 420.265 35.8674 419.855 35.0055C420.264 34.1433 420.703 33.2971 421.174 32.4685L421.174 32.4686C421.645 31.6398 422.146 30.8295 422.677 30.0393C423.599 29.9685 424.544 29.9317 425.5 29.9317C426.46 29.9317 427.406 29.9689 428.328 30.0402C428.854 30.8292 429.352 31.6367 429.822 32.4614C430.294 33.2881 430.74 34.1303 431.158 34.9864C430.744 35.8513 430.3 36.701 429.826 37.5338ZM432.558 22.5208C433.596 23.1286 434 25.5795 433.347 28.7935C433.306 28.9988 433.259 29.2073 433.208 29.4193C431.922 29.1178 430.525 28.8937 429.063 28.7545C428.211 27.523 427.329 26.4035 426.443 25.4343C426.675 25.2071 426.913 24.9857 427.156 24.7704C429.444 22.7486 431.583 21.9502 432.558 22.5208ZM425.5 32.1633C427.029 32.1633 428.268 33.4215 428.268 34.9735C428.268 36.5255 427.029 37.7837 425.5 37.7837C423.971 37.7837 422.732 36.5255 422.732 34.9735C422.732 33.4215 423.971 32.1633 425.5 32.1633Z" fill="#00D8FF"/>
</g>
<path d="M681.644 261.038C672.286 275.535 652.757 279.587 638.021 270.075C623.286 260.564 618.935 241.099 628.293 226.601C637.651 212.104 657.18 208.053 671.916 217.564C686.651 227.076 691.002 246.541 681.644 261.038Z" stroke="#00E991" stroke-width="0.5"/>
<g clip-path="url(#clip3_15_59)">
<path d="M647.289 233.755L669.532 248.112L658.92 264.553L636.677 250.196L647.289 233.755Z" fill="white"/>
<path d="M640.128 234.479L631.125 248.427L659.022 266.434L677.028 238.537L649.132 220.531L640.128 234.479ZM663.329 247.873C663.897 248.46 664.278 249.201 664.426 250.004C664.51 250.44 664.542 250.885 664.519 251.329C664.496 251.365 662.765 251.401 661.737 251.383C661.699 251.383 661.666 251.198 661.662 250.946C661.677 250.628 661.612 250.311 661.472 250.026C661.331 249.74 661.121 249.495 660.86 249.312C660.052 248.708 659.221 248.801 658.754 249.533C658.63 249.711 658.555 249.918 658.538 250.133C658.474 250.639 658.671 251.092 659.453 252.261C660.896 254.41 661.385 255.528 661.396 256.677C661.414 257.952 660.615 259.479 659.524 260.287C658.329 261.159 656.727 261.241 655.012 260.504C654.253 260.129 653.544 259.661 652.902 259.11C651.937 258.235 651.277 257.075 651.018 255.798C650.944 255.349 650.921 254.288 650.987 254.254C651.107 254.246 651.228 254.247 651.349 254.257L652.751 254.353L653.852 254.406L653.859 254.761C653.881 255.348 654.018 255.924 654.263 256.457C654.853 257.502 656.113 258.224 657.066 258.071C657.397 258.003 657.693 257.821 657.903 257.557C658.113 257.293 658.224 256.963 658.217 256.626C658.194 256.171 657.916 255.622 657.02 254.272C655.981 252.723 655.608 251.939 655.436 250.961C655.343 250.329 655.389 249.685 655.571 249.072C655.839 248.411 656.211 247.798 656.674 247.255C657.869 246.056 659.538 245.758 661.245 246.453C662.006 246.821 662.708 247.301 663.326 247.878L663.329 247.873ZM656.026 244.816L655.288 245.959L651.666 243.621L645.007 253.938L642.438 252.28L649.099 241.961L645.468 239.617L646.188 238.501C646.425 238.109 646.683 237.73 646.96 237.365C646.991 237.356 649.205 238.785 651.883 240.514L656.754 243.658L656.026 244.816Z" fill="#007ACC"/>
</g>
<path d="M680.295 457.689C669.867 471.436 650.087 473.997 636.114 463.397C622.14 452.797 619.276 433.059 629.705 419.311C640.133 405.564 659.913 403.003 673.886 413.603C687.86 424.203 690.724 443.941 680.295 457.689Z" stroke="#00E991" stroke-width="0.5"/>
<path d="M670.17 432.063L675.11 435.81L646.443 447.953L650.412 417.074L659.859 424.241L658.977 431.43L665.601 428.597L670.17 432.063Z" fill="#41B883"/>
<path d="M650.412 417.074L646.443 447.953L675.11 435.81L670.17 432.063L652.97 439.349L655.289 420.775L650.412 417.074Z" fill="#41B883"/>
<path d="M655.192 420.701L653.122 439.213L670.329 432.184L665.681 428.658L659.073 431.369L659.84 424.227L655.192 420.701Z" fill="#35495E"/>
<g clip-path="url(#clip4_15_59)">
<path d="M202.624 77.7084L202.521 77.6273C202.315 77.4649 202.215 77.2526 202.143 76.9621L196.414 79.6571L197.811 60.592L204.387 65.342L205.154 63.9438L198.579 59.1939C198.476 59.1127 197.752 58.6756 197.062 58.9999C196.744 59.1497 196.317 59.4803 196.27 60.3449L194.841 79.6192C194.863 79.8036 194.817 80.6682 195.409 81.1021C195.771 81.3208 196.24 81.4894 196.982 81.1401L204.197 77.7464C203.454 78.0957 202.933 77.9519 202.624 77.7084Z" fill="#00C58E"/>
<path d="M218.29 68.6291L205.672 59.2476C205.518 59.189 204.828 58.6623 204.156 58.9784C203.846 59.1243 203.457 59.5038 203.398 60.3173L203.225 62.2313L204.587 65.1258L204.913 60.5864L217.379 69.7779L214.847 70.9692C215.009 71.2045 215.096 71.484 215.096 71.7682L215.07 71.8462C215.037 72.5815 214.287 72.9999 214.184 73.0485L218.112 71.2008C218.267 71.1278 218.965 70.734 219.049 69.9742C219.078 69.6332 218.955 69.1022 218.29 68.6291Z" fill="#108775"/>
<path d="M215.395 71.7178L215.37 71.6658L215.374 71.5372C215.329 71.3047 215.284 71.0722 215.134 70.8893L214.63 70.3657L204.896 63.6577L203.445 62.6286L203.392 62.6535L203.259 64.4279L202.22 76.2031L202.302 76.9255C202.375 77.2136 202.541 77.4694 202.774 77.6547C203.132 77.8668 203.595 78.0294 204.335 77.6816L214.368 72.9618C214.526 72.8873 215.294 72.4627 215.395 71.7176L215.395 71.7178ZM204.71 65.4571L213.603 71.6097L203.78 76.2301L204.71 65.4571Z" fill="#D0D0D0"/>
</g>
<path d="M230.646 54.2529C237.637 69.1136 230.859 87.03 215.485 94.2623C200.11 101.495 181.987 95.292 174.996 80.4314C168.006 65.5707 174.783 47.6542 190.158 40.4219C205.532 33.1896 223.656 39.3922 230.646 54.2529Z" stroke="#00E991" stroke-width="0.5"/>
</g>
<defs>
<clipPath id="clip0_15_59">
<rect width="700" height="700" fill="white"/>
</clipPath>
<clipPath id="clip1_15_59">
<rect width="46.1267" height="18.1212" fill="white" transform="translate(9.88428 395.59) rotate(-12.314)"/>
</clipPath>
<clipPath id="clip2_15_59">
<rect width="31" height="28" fill="white" transform="translate(410 21)"/>
</clipPath>
<clipPath id="clip3_15_59">
<rect width="34" height="34" fill="white" transform="translate(649 220) rotate(32.8412)"/>
</clipPath>
<clipPath id="clip4_15_59">
<rect width="26.4262" height="26" fill="white" transform="translate(185.791 60.9868) rotate(-25.1928)"/>
</clipPath>
</defs>
</svg>
