<svg width="635" height="635" viewBox="0 0 635 635" fill="none" xmlns="http://www.w3.org/2000/svg">
<path d="M520.468 316.546C510.756 330.925 490.899 334.502 476.112 324.515C461.325 314.528 457.226 294.772 466.938 280.393C476.65 266.013 496.507 262.437 511.294 272.424C526.081 282.411 530.179 302.167 520.468 316.546Z" stroke="#00E991" stroke-width="0.5"/>
<path d="M476.399 301.476L491.539 277.462L513.411 294.115L494.292 315.093L483.429 310.776L476.399 301.476Z" fill="#1572B6"/>
<path d="M485.425 308.182L494.102 311.656L510.139 294.092L501.286 287.351L485.425 308.182Z" fill="#33A9DC"/>
<path d="M495.057 295.532L498.63 298.252L501.024 295.618L497.205 292.711L499.303 289.955L506.073 295.11L505.446 295.799L499.001 302.888L492.959 298.288L495.057 295.532Z" fill="white"/>
<path d="M490.053 303.185L490.037 303.178L487.478 299.957L488.901 297.666L486.041 295.488L483.238 299.997L487.915 305.964L487.931 305.971L490.053 303.185Z" fill="#EBEBEB"/>
<path d="M496.408 300.913L493.299 304.3L489.563 302.748L487.408 305.579L494.306 308.39L494.698 307.963L499.208 303.046L496.408 300.913Z" fill="white"/>
<path d="M499.303 289.955L497.205 292.711L490.677 287.74L491.095 287.08L492.035 285.589L492.533 284.801L499.303 289.955ZM495.047 295.525L492.949 298.28L489.977 296.018L490.395 295.357L491.336 293.867L491.834 293.078L495.047 295.525Z" fill="#EBEBEB"/>
<path d="M163.424 323.592C172.113 337.533 167.669 356.002 153.487 364.84C139.306 373.679 120.768 369.533 112.08 355.592C103.391 341.651 107.835 323.183 122.017 314.344C136.199 305.506 154.736 309.652 163.424 323.592Z" stroke="#00E991" stroke-width="0.5"/>
<g clip-path="url(#clip0_15_59)">
<path d="M151.952 339.25C151.718 339.563 151.377 339.776 150.993 339.847C150.609 339.918 150.208 339.843 149.866 339.636L144.098 337.176L143.276 336.842L142.839 344.024C142.875 344.403 142.775 344.779 142.556 345.081C142.337 345.382 142.014 345.59 141.649 345.664L142.267 336.496L134.464 333.426C134.698 333.122 135.031 332.912 135.406 332.833C135.781 332.753 136.175 332.808 136.523 332.988L142.436 335.432L142.875 329.054C142.843 328.679 142.947 328.31 143.168 328.015C143.39 327.721 143.712 327.523 144.075 327.459L143.836 330.743L143.477 335.134C143.451 335.229 143.445 335.33 143.46 335.43C143.475 335.529 143.51 335.625 143.564 335.711C143.617 335.797 143.687 335.87 143.77 335.928C143.853 335.985 143.946 336.024 144.043 336.042L151.943 339.257L151.952 339.25ZM126.742 346.063L125.931 343.934C124.614 339.548 127.8 335.396 132.107 335.935C134.631 336.252 136.25 337.918 137.521 340.141L128.084 346.023C130.349 349.997 134.515 350.652 137.23 347.298C137.661 346.74 137.945 346.077 138.058 345.37C138.17 344.663 138.107 343.933 137.875 343.247C137.678 342.524 137.915 342.232 138.577 342.062C138.948 342.862 139.137 343.732 139.131 344.605C139.125 345.479 138.924 346.334 138.543 347.106C137.879 348.326 136.845 349.29 135.589 349.859C134.334 350.429 132.921 350.576 131.553 350.278C130.099 349.822 128.818 348.901 127.905 347.655C127.771 347.44 127.575 347.283 127.407 347.12C127.183 346.77 126.96 346.418 126.741 346.065L126.742 346.063ZM127.575 345.18L136.11 339.861C134.304 337.083 131.345 336.157 129.045 337.565C126.474 339.117 125.867 342.204 127.561 345.171L127.575 345.18Z" fill="#F2F2F2"/>
</g>
<defs>
<clipPath id="clip0_15_59">
<rect width="25" height="25" fill="white" transform="translate(120.37 335.843) rotate(-31.9323)"/>
</clipPath>
</defs>
</svg>
