<svg width="36" height="36" viewBox="0 0 36 36" fill="none" xmlns="http://www.w3.org/2000/svg">
<g clip-path="url(#clip0_41_2)">
<path d="M27.5625 0H8.4375C3.7776 0 0 3.7776 0 8.4375V27.5625C0 32.2224 3.7776 36 8.4375 36H27.5625C32.2224 36 36 32.2224 36 27.5625V8.4375C36 3.7776 32.2224 0 27.5625 0Z" fill="#242938"/>
<path d="M11.9175 15.7445C11.9175 16.0868 11.9545 16.3643 12.0192 16.5679C12.1013 16.7969 12.2003 17.0196 12.3153 17.234C12.3616 17.308 12.38 17.382 12.38 17.4468C12.38 17.5393 12.3245 17.6318 12.2042 17.7242L11.6213 18.1129C11.5381 18.1683 11.4548 18.1962 11.3809 18.1962C11.2883 18.1962 11.1958 18.1499 11.1033 18.0667C10.9787 17.9327 10.8671 17.7871 10.7703 17.6318C10.6669 17.4541 10.5711 17.2719 10.4834 17.0859C9.7618 17.9372 8.85514 18.3628 7.76342 18.3627C6.98633 18.3627 6.36645 18.1406 5.91308 17.6965C5.45984 17.2524 5.22852 16.6604 5.22852 15.9203C5.22852 15.1338 5.50611 14.4955 6.07044 14.0144C6.63477 13.5333 7.38416 13.2927 8.33703 13.2927C8.65161 13.2927 8.97547 13.3206 9.31775 13.3668C9.66003 13.4131 10.0116 13.4871 10.3817 13.5703V12.8949C10.3817 12.1918 10.2336 11.7014 9.94691 11.4147C9.65075 11.1278 9.15125 10.9891 8.43884 10.9891C8.11498 10.9891 7.78198 11.0261 7.4397 11.1094C7.09742 11.1926 6.76428 11.2944 6.44042 11.424C6.33522 11.471 6.22709 11.5111 6.1167 11.5442C6.05202 11.5628 6.00561 11.572 5.96863 11.572C5.83925 11.572 5.77428 11.4795 5.77428 11.2852V10.8318C5.77428 10.6838 5.79284 10.5727 5.83911 10.5081C5.88537 10.4434 5.96862 10.3785 6.09814 10.3137C6.42195 10.1472 6.81055 10.0085 7.26392 9.89747C7.71716 9.77709 8.19823 9.72169 8.70716 9.72169C9.80811 9.72169 10.6129 9.97144 11.1311 10.4709C11.6399 10.9706 11.8989 11.7292 11.8989 12.747V15.7445H11.9175ZM8.16139 17.1508C8.46655 17.1508 8.78112 17.0952 9.11427 16.9841C9.44727 16.8732 9.74328 16.6695 9.99317 16.3921C10.1411 16.2163 10.2522 16.022 10.3076 15.7999C10.363 15.5779 10.4001 15.3096 10.4001 14.9951V14.6064C10.1196 14.5382 9.83548 14.4857 9.54908 14.4492C9.26058 14.4127 8.9701 14.3942 8.67931 14.3937C8.05944 14.3937 7.6062 14.514 7.30091 14.7638C6.99561 15.0135 6.84753 15.3651 6.84753 15.8278C6.84753 16.2626 6.95862 16.5863 7.18981 16.8083C7.412 17.0397 7.73586 17.1508 8.16139 17.1508ZM15.5902 18.1499C15.4237 18.1499 15.3126 18.1221 15.2386 18.0574C15.1647 18.0018 15.0998 17.8723 15.0444 17.6965L12.8704 10.545C12.8147 10.36 12.787 10.2398 12.787 10.1749C12.787 10.027 12.8609 9.94359 13.009 9.94359H13.9156C14.0914 9.94359 14.2118 9.97144 14.2765 10.0361C14.3504 10.0917 14.406 10.2212 14.4615 10.397L16.0157 16.5216L17.4591 10.397C17.5054 10.2119 17.5608 10.0918 17.6349 10.0361C17.7088 9.98072 17.8384 9.94373 18.0049 9.94373H18.745C18.9208 9.94373 19.0411 9.97144 19.1151 10.0361C19.1891 10.0917 19.2539 10.2212 19.2909 10.397L20.7527 16.5956L22.3531 10.397C22.4087 10.2119 22.4735 10.0918 22.5382 10.0361C22.6122 9.98072 22.7325 9.94373 22.899 9.94373H23.7594C23.9075 9.94373 23.9907 10.0177 23.9907 10.1749C23.9907 10.2213 23.9814 10.2675 23.9721 10.323C23.963 10.3785 23.9444 10.4524 23.9075 10.5543L21.6778 17.7058C21.6222 17.8909 21.5575 18.0112 21.4835 18.0667C21.4095 18.1221 21.2892 18.1592 21.1319 18.1592H20.3363C20.1605 18.1592 20.0403 18.1313 19.9663 18.0667C19.8922 18.0018 19.8275 17.8816 19.7905 17.6965L18.3564 11.7292L16.9317 17.6873C16.8855 17.8723 16.8299 17.9925 16.756 18.0574C16.6819 18.1221 16.5523 18.1499 16.3858 18.1499H15.5902ZM27.4786 18.3997C26.9975 18.3997 26.5165 18.3441 26.0538 18.2332C25.5913 18.1221 25.2305 18.0018 24.9898 17.863C24.8419 17.7798 24.7401 17.6872 24.7031 17.604C24.6671 17.5224 24.6482 17.4342 24.6476 17.345V16.8732C24.6476 16.6788 24.7215 16.5863 24.8603 16.5863C24.9159 16.5863 24.9714 16.5956 25.0268 16.6141C25.0824 16.6326 25.1656 16.6695 25.2582 16.7067C25.585 16.8504 25.9261 16.9589 26.2759 17.0304C26.6382 17.104 27.007 17.1412 27.3768 17.1415C27.9597 17.1415 28.4129 17.0397 28.7275 16.8362C29.0421 16.6326 29.2086 16.3365 29.2086 15.9573C29.2086 15.6982 29.1253 15.4853 28.9588 15.3096C28.7923 15.1338 28.4778 14.9766 28.0244 14.8285L26.683 14.4122C26.0075 14.1995 25.5079 13.8849 25.2026 13.4686C24.8973 13.0615 24.7401 12.608 24.7401 12.1271C24.7401 11.7386 24.8233 11.3962 24.9898 11.1001C25.1563 10.8041 25.3784 10.545 25.656 10.3416C25.9336 10.1287 26.2482 9.97144 26.6181 9.86034C26.9883 9.74925 27.3768 9.70312 27.7839 9.70312C27.9874 9.70312 28.2002 9.71241 28.4038 9.74011C28.6166 9.76781 28.8108 9.8048 29.0051 9.84192C29.1902 9.88819 29.366 9.93445 29.5325 9.99C29.699 10.0454 29.8285 10.1009 29.921 10.1565C30.0505 10.2305 30.143 10.3044 30.1986 10.3877C30.2541 10.4617 30.2818 10.5636 30.2818 10.6931V11.1279C30.2818 11.3221 30.2079 11.424 30.0691 11.424C29.995 11.424 29.8747 11.387 29.7175 11.3129C29.1902 11.0724 28.598 10.9522 27.9411 10.9522C27.4138 10.9522 26.9975 11.0354 26.7107 11.2112C26.4238 11.387 26.2759 11.6553 26.2759 12.0345C26.2759 12.2936 26.3684 12.5156 26.5535 12.6914C26.7385 12.8672 27.0808 13.043 27.5712 13.2002L28.8849 13.6164C29.5509 13.8293 30.0321 14.1254 30.3188 14.5048C30.6056 14.8842 30.7444 15.3188 30.7444 15.7999C30.7444 16.1978 30.6611 16.5586 30.5039 16.8732C30.3374 17.1877 30.1153 17.4652 29.8285 17.6873C29.5417 17.9186 29.1993 18.0851 28.8016 18.2055C28.3852 18.335 27.9504 18.3997 27.4786 18.3997Z" fill="white"/>
<path fill-rule="evenodd" clip-rule="evenodd" d="M29.2271 22.896C26.1833 25.1441 21.7611 26.3376 17.9586 26.3376C12.6297 26.3376 7.82796 24.3669 4.20138 21.0919C3.91451 20.8329 4.17368 20.4813 4.51596 20.6848C8.43869 22.9607 13.2773 24.3392 18.2824 24.3392C21.6593 24.3392 25.3692 23.6361 28.7831 22.1928C29.2918 21.9615 29.7266 22.5258 29.2271 22.896Z" fill="#FF9900"/>
<path fill-rule="evenodd" clip-rule="evenodd" d="M30.4945 21.4527C30.106 20.9531 27.9226 21.2121 26.9326 21.3323C26.6366 21.3695 26.5904 21.1103 26.8587 20.9161C28.5979 19.6949 31.4567 20.0465 31.7898 20.4534C32.1228 20.8698 31.6973 23.7286 30.069 25.0979C29.8191 25.3106 29.5786 25.1995 29.6896 24.9221C30.0597 24.0062 30.8831 21.9429 30.4945 21.4527Z" fill="#FF9900"/>
</g>
<defs>
<clipPath id="clip0_41_2">
<rect width="36" height="36" fill="white"/>
</clipPath>
</defs>
</svg>
