<svg width="100%" height="100%" viewBox="0 0 101 100" fill="none"
    xmlns="http://www.w3.org/2000/svg">
    <path d="M18.8338 85.0031L11.815 6.25H88.965L81.9369 84.9906L50.3431 93.75L18.8338 85.0031Z" fill="#1572B6" />
    <path d="M50.39 87.0563L75.9213 79.9781L81.9275 12.6906H50.39V87.0563Z" fill="#33A9DC" />
    <path d="M50.39 41.2219H63.1713L64.0525 31.3313H50.39V21.6719H74.6088L74.3775 24.2625L72.0056 50.8813H50.39V41.2219Z" fill="white" />
    <path d="M50.4494 66.3063L50.4056 66.3187L39.6494 63.4125L38.9619 55.7094H29.265L30.6181 70.875L50.4025 76.3687L50.4494 76.3562V66.3063Z" fill="#EBEBEB" />
    <path d="M62.3494 50.4719L61.1869 63.4063L50.415 66.3125V76.3625L70.215 70.875L70.3619 69.2438L72.04 50.4719H62.3494Z" fill="white" />
    <path d="M50.4244 21.6719V31.3313H27.0932L26.8994 29.1594L26.4588 24.2625L26.2275 21.6719H50.4244ZM50.39 41.2219V50.8813H39.7682L39.5744 48.7094L39.1369 43.8125L38.9057 41.2219H50.39Z" fill="#EBEBEB" />
</svg>
