<svg width="100%" height="100%" viewBox="0 0 100 100" fill="none" xmlns="http://www.w3.org/2000/svg">
<path d="M96.0185 41.3301C93.8566 39.8361 88.9025 39.2758 85.0295 40.0228C84.5795 36.2879 82.5076 33.0202 78.9046 30.1257L76.8331 28.6317L75.3916 30.7793C73.5905 33.5805 72.6897 37.5021 72.9597 41.2371C73.0497 42.5439 73.5001 44.8782 74.8512 46.9324C73.5905 47.6794 70.9782 48.6131 67.5556 48.6131H2.43302L2.25302 49.3601C1.62227 53.0947 1.62227 64.7659 9.00828 73.7293C14.5928 80.5452 22.8795 84 33.7782 84C57.377 84 74.8512 72.7019 83.048 52.2543C86.2906 52.3477 93.2262 52.2543 96.7393 45.2513C96.8293 45.0646 97.0093 44.6911 97.6396 43.2909L98 42.5439L96.0185 41.3301ZM54.4947 15H44.5872V24.3369H54.4947V15ZM54.4947 26.2044H44.5872V35.5413H54.4947V26.2044ZM42.7853 26.2044H32.8778V35.5413H42.7853V26.2044ZM31.0759 26.2044H21.168V35.5413H31.0759V26.2044ZM19.3665 37.4088H9.45866V46.7457H19.3662L19.3665 37.4088ZM31.0759 37.4088H21.168V46.7457H31.0759V37.4088ZM42.7853 37.4088H32.8778V46.7457H42.7853V37.4088ZM54.4951 37.4088H44.5868V46.7457H54.4951V37.4088ZM66.2045 37.4088H56.2962V46.7457H66.2045V37.4088Z" fill="#2396ED"/>
</svg>
