<svg width="100%" height="100%" viewBox="0 0 100 100" fill="none" xmlns="http://www.w3.org/2000/svg">
<path d="M98 77.4657C96.6027 78.0055 95.0608 78.0039 93.6646 77.4611C92.2684 76.9183 91.1144 75.8718 90.42 74.5188L76.62 54.9911L74.62 52.2611L58.608 74.5433C57.956 75.8402 56.8646 76.8497 55.538 77.383C54.2114 77.9163 52.7404 77.937 51.4 77.4412L72.032 49.1177L52.84 23.5324C54.22 23.0236 55.7292 23.0168 57.1135 23.5133C58.4977 24.0098 59.6725 24.9792 60.44 26.2584L74.744 46.0275L89.128 26.3402C89.7851 25.0664 90.8767 24.0841 92.1953 23.58C93.514 23.0759 94.9676 23.0852 96.28 23.6061L88.832 33.7199L78.744 47.1571C78.4639 47.4129 78.2397 47.7263 78.0862 48.0768C77.9327 48.4274 77.8534 48.8072 77.8534 49.1914C77.8534 49.5755 77.9327 49.9553 78.0862 50.3059C78.2397 50.6565 78.4639 50.9699 78.744 51.2256L97.96 77.4698L98 77.4657ZM2.00805 48.7657L3.68805 40.2727C8.30405 23.4792 27.12 16.4925 40.064 26.8887C47.644 32.9831 49.536 41.6112 49.164 51.3361H6.46405C5.77205 68.7026 18.02 79.1889 33.68 73.8312C36.2183 72.8955 38.4903 71.3305 40.2927 69.2762C42.095 67.2219 43.3716 64.7425 44.008 62.0597C44.836 59.3338 46.2 58.8672 48.704 59.653C48.2859 62.9778 47.1369 66.1625 45.3432 68.9676C43.5495 71.7727 41.1579 74.1255 38.348 75.849C33.706 78.4486 28.3794 79.4791 23.1303 78.7932C17.8812 78.1073 12.9786 75.7401 9.12405 72.0302C5.31342 67.6392 3.0098 62.0941 2.56405 56.2395C2.56405 55.2776 2.24405 54.3772 2.02805 53.5136C2.00854 51.9324 1.99921 50.3511 2.00005 48.7698L2.00805 48.7657ZM6.51605 47.5951H45.132C44.892 35.0051 37.128 26.0742 26.772 25.9923C15.244 25.8286 6.99605 34.563 6.48805 47.5378L6.51605 47.5951Z" fill="#F2F2F2"/>
</svg>
