<svg width="100%" height="100%" viewBox="0 0 100 100" fill="none" xmlns="http://www.w3.org/2000/svg">
<g clip-path="url(#clip0_33_3)">
<path d="M34 99C42.832 99 50 91.7573 50 82.8333V66.6666H34C25.168 66.6666 18 73.9093 18 82.8333C18 91.7573 25.168 99 34 99Z" fill="#0ACF83"/>
<path d="M18 50.5C18 41.576 25.168 34.3334 34 34.3334H50V66.6667H34C25.168 66.6667 18 59.424 18 50.5Z" fill="#A259FF"/>
<path d="M18 18.1667C18 9.24267 25.168 2 34 2H50V34.3333H34C25.168 34.3333 18 27.0907 18 18.1667Z" fill="#F24E1E"/>
<path d="M50 2H66C74.832 2 82 9.24267 82 18.1667C82 27.0907 74.832 34.3333 66 34.3333H50V2Z" fill="#FF7262"/>
<path d="M82 50.5C82 59.424 74.832 66.6667 66 66.6667C57.168 66.6667 50 59.424 50 50.5C50 41.576 57.168 34.3334 66 34.3334C74.832 34.3334 82 41.576 82 50.5Z" fill="#1ABCFE"/>
</g>
<defs>
<clipPath id="clip0_33_3">
<rect width="64" height="97" fill="white" transform="translate(18 2)"/>
</clipPath>
</defs>
</svg>
