<svg width="100%" height="100%" viewBox="0 0 100 100" fill="none" xmlns="http://www.w3.org/2000/svg">
<g clip-path="url(#clip0_33_3)">
<path d="M59.771 44.7829C57.6939 44.7829 56.1472 45.8007 56.1472 48.2503C56.1472 50.0959 57.1666 51.3774 59.6589 51.3774C61.7715 51.3774 63.2065 50.1348 63.2065 48.1736C63.2065 45.9514 61.9226 44.7829 59.771 44.7829ZM55.6184 62.0796C55.1267 62.6814 54.6369 63.3214 54.6369 64.0759C54.6369 65.5822 56.5614 66.0355 59.205 66.0355C61.3945 66.0355 64.3773 65.8822 64.3773 63.8503C64.3773 62.6425 62.9423 62.5681 61.1292 62.4548L55.6184 62.0796ZM66.7932 44.8966C67.4715 45.7633 68.19 46.9696 68.19 48.7025C68.19 52.8848 64.9054 55.3336 60.1495 55.3336C58.9401 55.3336 57.8453 55.1833 57.1666 54.9951L55.9201 56.9914L59.6195 57.2174C66.1515 57.6329 70.0009 57.8218 70.0009 62.8311C70.0009 67.1651 66.189 69.6129 59.6195 69.6129C52.7866 69.6129 50.1815 67.8796 50.1815 64.9033C50.1815 63.2077 50.9367 62.3051 52.2582 61.0596C51.012 60.534 50.5971 59.5925 50.5971 58.5744C50.5971 57.7448 51.012 56.9918 51.6926 56.2751C52.3717 55.5603 53.1265 54.8436 54.0327 54.0148C52.1832 53.1103 50.7857 51.1511 50.7857 48.3622C50.7857 44.0299 53.6553 41.0544 59.4303 41.0544C61.0542 41.0544 62.0361 41.2033 62.9045 41.4311H70.267V44.6325L66.7932 44.8966ZM76.9088 38.0496C74.7565 38.0496 73.5107 36.8051 73.5107 34.6566C73.5107 32.5111 74.7561 31.3418 76.9088 31.3418C79.0983 31.3418 80.3444 32.5111 80.3444 34.6566C80.3444 36.8051 79.0986 38.0496 76.9088 38.0496ZM72.0378 60.6929V57.7177L73.9638 57.4548C74.4926 57.3788 74.5676 57.2662 74.5676 56.6999V45.6222C74.5676 45.2088 74.4548 44.9436 74.0759 44.8318L72.0378 44.1151L72.4527 41.064H80.2683V56.6999C80.2683 57.3036 80.3047 57.3788 80.8728 57.4551L82.7981 57.7181V60.6929H72.0378ZM97.7275 59.2322C96.1036 60.0229 93.7253 60.7388 91.5726 60.7388C87.0801 60.7388 85.382 58.9322 85.382 54.6722V44.8014C85.382 44.5755 85.382 44.4248 85.0788 44.4248H82.4366V41.0703C85.7598 40.6925 87.0801 39.0348 87.4954 34.9277H91.0824V40.2796C91.0824 40.5425 91.0824 40.6562 91.3848 40.6562H96.7074V44.424H91.0824V53.4288C91.0824 55.6518 91.6115 56.5177 93.6492 56.5177C94.7076 56.5177 95.8012 56.2548 96.707 55.9155L97.7275 59.2322Z" fill="#D8D8D8"/>
<path d="M41.7898 49.3446L24.528 32.1176C24.2916 31.8816 24.0109 31.6944 23.702 31.5666C23.3931 31.4389 23.062 31.3732 22.7276 31.3732C22.3932 31.3732 22.0622 31.4389 21.7532 31.5666C21.4443 31.6944 21.1637 31.8816 20.9273 32.1176L17.3429 35.6954L21.8899 40.2332C22.4244 40.052 22.999 40.0237 23.5488 40.1515C24.0986 40.2794 24.6015 40.5582 25.0008 40.9565C25.4019 41.3576 25.682 41.8631 25.809 42.4155C25.936 42.9678 25.9049 43.5447 25.7192 44.0802L30.1007 48.4539C31.1609 48.0895 32.3844 48.3254 33.2309 49.1717C33.5123 49.4524 33.7356 49.7856 33.888 50.1525C34.0403 50.5193 34.1187 50.9125 34.1187 51.3096C34.1187 51.7068 34.0403 52.1 33.888 52.4668C33.7356 52.8337 33.5123 53.1669 33.2309 53.4476C32.7357 53.9422 32.0842 54.2503 31.3871 54.3194C30.6899 54.3885 29.9904 54.2144 29.4074 53.8266C28.8245 53.4389 28.3942 52.8615 28.1898 52.1927C27.9854 51.524 28.0196 50.8052 28.2864 50.1587L24.1999 46.0802L24.1996 56.8135C24.4956 56.96 24.7662 57.1531 25.0008 57.3854C25.2822 57.6662 25.5054 57.9995 25.6577 58.3664C25.81 58.7333 25.8884 59.1266 25.8884 59.5237C25.8884 59.9209 25.81 60.3141 25.6577 60.681C25.5054 61.0479 25.2822 61.3813 25.0008 61.6621C23.817 62.8435 21.8984 62.8435 20.7165 61.6621C20.3634 61.3099 20.1029 60.8761 19.9583 60.3993C19.8137 59.9224 19.7893 59.4173 19.8875 58.9288C19.9856 58.4403 20.2031 57.9836 20.5207 57.5993C20.8384 57.2149 21.2462 56.9149 21.708 56.7258V45.8924C21.3367 45.7407 20.9995 45.5163 20.7165 45.2324C19.8199 44.3387 19.6043 43.0258 20.0637 41.9269L15.5817 37.4528L3.74599 49.2646C3.50948 49.5007 3.32188 49.7809 3.19388 50.0893C3.06588 50.3977 3 50.7282 3 51.0621C3 51.3959 3.06588 51.7264 3.19388 52.0348C3.32188 52.3432 3.50948 52.6234 3.74599 52.8595L21.0078 70.0869C21.2442 70.3229 21.5249 70.5101 21.8338 70.6378C22.1427 70.7656 22.4738 70.8313 22.8081 70.8313C23.1425 70.8313 23.4736 70.7656 23.7825 70.6378C24.0914 70.5101 24.3721 70.3229 24.6085 70.0869L41.7898 52.9398C42.2673 52.463 42.5355 51.8164 42.5355 51.1422C42.5355 50.4681 42.2673 49.8215 41.7898 49.3446Z" fill="#DE4C36"/>
</g>
<defs>
<clipPath id="clip0_33_3">
<rect width="95" height="40" fill="white" transform="translate(3 31)"/>
</clipPath>
</defs>
</svg>
