<svg width="100%" height="100%" viewBox="0 0 100 100" fill="none" xmlns="http://www.w3.org/2000/svg">
<path d="M57.1357 34.5716L57.3399 34.7167C59.7397 36.4043 61.4604 38.7188 62.5924 41.5156C62.8641 41.9495 62.683 42.1907 62.1396 42.3352L61.2199 42.5858C59.1407 43.1563 57.4908 43.6359 55.4389 44.2064L54.2685 44.5309C53.8471 44.642 53.7309 44.5953 53.2826 44.0518L53.2194 43.9746C52.5802 43.2033 52.1014 42.688 51.2546 42.228L51.0913 42.1423C48.2386 40.6477 45.4766 41.0816 42.8957 42.8657C39.8165 44.9872 38.2317 48.1215 38.2769 52.0272C38.3224 55.8845 40.8126 59.067 44.3899 59.5973C47.4688 60.0314 50.0498 58.8741 52.0874 56.4151C52.495 55.8845 52.8572 55.306 53.3098 54.6309H44.5711C43.6203 54.6309 43.3939 54.0042 43.7109 53.1845L43.8678 52.7908C44.4498 51.349 45.3524 49.2767 45.9385 48.0917L46.0664 47.8366C46.223 47.5476 46.5408 47.1571 47.1521 47.1571H61.724C62.3784 44.9491 63.4403 42.8628 64.8565 40.8887C68.162 36.2598 72.1467 33.8487 77.535 32.8364C82.1536 31.9683 86.5006 32.4505 90.4398 35.2954C94.017 37.8991 96.2358 41.4193 96.8245 46.048C97.5941 52.5576 95.8282 57.8615 91.6172 62.3941C88.6287 65.6247 84.961 67.6499 80.7499 68.566C79.5274 68.8072 78.3048 68.8553 77.1276 69C73.0071 68.9035 69.2488 67.6499 66.0792 64.7568C63.8499 62.7045 62.3143 60.1826 61.5512 57.2464C61.0157 58.397 60.3789 59.4909 59.6495 60.5134C56.3892 65.0943 52.133 67.9391 46.7446 68.7108C42.3072 69.3375 38.1867 68.4213 34.5642 65.5282C31.2135 62.8279 29.3117 59.2598 28.8135 54.8239C28.225 49.568 29.6739 44.8425 32.6624 40.6959C35.8775 36.2115 40.1337 33.3667 45.3409 32.3541C49.5185 31.5495 53.5215 32.0456 57.1359 34.5716M78.6759 41.4812L78.5309 41.5156C74.32 42.5282 71.6032 45.3729 70.6071 49.9055C69.7919 53.6665 71.5126 57.4758 74.7728 59.0188C77.2631 60.1761 79.7536 60.0314 82.1534 58.7294C85.7306 56.7526 87.6776 53.6665 87.9041 49.5198C87.8587 48.8931 87.8587 48.4107 87.7681 47.9285C86.9623 43.2087 82.9248 40.5156 78.6759 41.4812ZM25.1458 50.2912C25.3269 50.2912 25.4175 50.4359 25.4175 50.6287L25.3269 51.786C25.3269 51.9788 25.1458 52.1235 25.0099 52.1235L15.1389 52.0754C14.9578 52.0754 14.9126 51.9307 15.003 51.786L15.637 50.5806C15.7276 50.4359 15.9087 50.2912 16.0898 50.2912H25.1458ZM26.1419 45.8551C26.323 45.8551 26.4137 45.9998 26.3684 46.1445L26.0061 47.3018C25.9608 47.4946 25.7797 47.5909 25.5986 47.5909L4.18109 47.6393C3.99999 47.6393 3.95476 47.5428 4.04522 47.3981L4.99611 46.0963C5.08675 45.9517 5.31307 45.8551 5.49417 45.8551H26.1419ZM28.4965 41.4191C28.6776 41.4191 28.7229 41.5638 28.6324 41.7085L27.8626 42.9621C27.772 43.1067 27.5456 43.2514 27.4098 43.2514L11.0186 43.2031C10.8373 43.2031 10.7921 43.1067 10.8825 42.9621L11.8334 41.6603C11.924 41.5156 12.1504 41.4191 12.3315 41.4191H28.4965Z" fill="#00ACD7"/>
</svg>
