<svg width="100%" height="100%" viewBox="0 0 128 128" fill="none" xmlns="http://www.w3.org/2000/svg">
<mask id="mask0_60_3" style="mask-type:luminance" maskUnits="userSpaceOnUse" x="18" y="1" width="92" height="126">
<path d="M18.7998 1H109.3V127H18.7998V1Z" fill="white"/>
</mask>
<g mask="url(#mask0_60_3)">
<path fill-rule="evenodd" clip-rule="evenodd" d="M21.0996 68.7C21.2996 72.2 24.7996 70.6 26.3996 69.5C27.8996 68.4 28.3996 69.3 28.4996 67.2C28.5996 65.8 28.6996 64.5 28.6996 63.1C26.3996 62.9 23.8996 63.4 21.9996 64.8C21.0996 65.5 19.1996 67.8 21.0996 68.7Z" fill="#F6D2A2"/>
</g>
<mask id="mask1_60_3" style="mask-type:luminance" maskUnits="userSpaceOnUse" x="18" y="1" width="92" height="126">
<path d="M18.7998 1H109.3V127H18.7998V1Z" fill="white"/>
</mask>
<g mask="url(#mask1_60_3)">
<path d="M22.9996 71.2C22.2996 71.2 20.9996 70.9 20.7996 68.9C20.1996 68.5 19.9996 68 19.9996 67.7C19.8996 66.5 21.1996 65.1 21.8996 64.6C23.4996 63.4 25.5996 62.8 27.7996 62.8H29.0996V63.1C29.1996 64.2 29.0996 65.3 28.9996 66.3C28.9996 66.6 28.9996 66.9 28.8996 67.2C28.7996 68.7 28.4996 68.9 27.7996 69.2C27.4996 69.3 27.1996 69.4 26.6996 69.8C26.1996 70.1 24.4996 71.2 22.9996 71.2ZM27.7996 63.4C25.6996 63.4 23.7996 64 22.2996 65.1C21.5996 65.6 20.5996 66.8 20.6996 67.6C20.6996 67.9 20.8996 68.2 21.2996 68.4L21.4996 68.5V68.7C21.5996 70.3 22.3996 70.5 22.9996 70.5C23.9996 70.5 25.3996 69.8 26.2996 69.2C26.8996 68.8 27.2996 68.7 27.5996 68.6C28.0996 68.4 28.1996 68.4 28.2996 67.2C28.2996 66.9 28.2996 66.6 28.3996 66.3C28.4996 65.4 28.4996 64.4 28.4996 63.5C28.1996 63.4 27.9996 63.4 27.7996 63.4Z" fill="black"/>
</g>
<mask id="mask2_60_3" style="mask-type:luminance" maskUnits="userSpaceOnUse" x="18" y="1" width="92" height="126">
<path d="M18.7998 1H109.3V127H18.7998V1Z" fill="white"/>
</mask>
<g mask="url(#mask2_60_3)">
<path fill-rule="evenodd" clip-rule="evenodd" d="M21.0996 68.7C21.5996 68.5 22.1996 68.4 22.4996 67.9Z" fill="#C6B198"/>
</g>
<mask id="mask3_60_3" style="mask-type:luminance" maskUnits="userSpaceOnUse" x="18" y="1" width="92" height="126">
<path d="M18.7998 1H109.3V127H18.7998V1Z" fill="white"/>
</mask>
<g mask="url(#mask3_60_3)">
<path d="M21.1 69C21 69 20.8 68.9 20.8 68.8C20.7 68.6 20.8 68.4 21 68.4C21.1 68.4 21.2 68.3 21.2 68.3C21.6 68.1 22 68 22.2 67.7C22.3 67.6 22.5 67.5 22.7 67.6C22.8 67.7 22.9 67.9 22.8 68.1C22.4 68.6 21.9 68.8 21.5 68.9L21.3 69H21.1Z" fill="black"/>
</g>
<mask id="mask4_60_3" style="mask-type:luminance" maskUnits="userSpaceOnUse" x="18" y="1" width="92" height="126">
<path d="M18.7998 1H109.3V127H18.7998V1Z" fill="white"/>
</mask>
<g mask="url(#mask4_60_3)">
<path fill-rule="evenodd" clip-rule="evenodd" d="M29.2998 26.4C15.6998 22.6 25.7998 5.29997 36.6998 12.4L29.2998 26.4Z" fill="#6AD7E5"/>
</g>
<mask id="mask5_60_3" style="mask-type:luminance" maskUnits="userSpaceOnUse" x="18" y="1" width="92" height="126">
<path d="M18.7998 1H109.3V127H18.7998V1Z" fill="white"/>
</mask>
<g mask="url(#mask5_60_3)">
<path d="M29.4997 26.8L29.1997 26.7C22.1997 24.7 22.2997 19.7 22.4997 18.2C22.9997 14.4 26.5997 10.4 31.3997 10.4C33.2997 10.4 35.0997 11 36.8997 12.2L37.1997 12.4L29.4997 26.8ZM31.3997 11.1C26.8997 11.1 23.5997 14.8 23.0997 18.3C22.5997 21.9 24.7997 24.7 29.0997 26L36.1997 12.5C34.6997 11.6 33.0997 11.1 31.3997 11.1Z" fill="black"/>
</g>
<mask id="mask6_60_3" style="mask-type:luminance" maskUnits="userSpaceOnUse" x="18" y="1" width="92" height="126">
<path d="M18.7998 1H109.3V127H18.7998V1Z" fill="white"/>
</mask>
<g mask="url(#mask6_60_3)">
<path fill-rule="evenodd" clip-rule="evenodd" d="M89.5996 11.1C100.3 3.59997 110.1 20.6 97.5996 24.9L89.5996 11.1Z" fill="#6AD7E5"/>
</g>
<mask id="mask7_60_3" style="mask-type:luminance" maskUnits="userSpaceOnUse" x="18" y="1" width="92" height="126">
<path d="M18.7998 1H109.3V127H18.7998V1Z" fill="white"/>
</mask>
<g mask="url(#mask7_60_3)">
<path d="M97.4997 25.3L89.1997 11L89.4997 10.8C91.3997 9.49999 93.2997 8.79999 95.1997 8.79999C99.7997 8.79999 103.1 12.6 103.8 16.3C104.1 17.8 104.4 22.9 97.7997 25.1L97.4997 25.3ZM90.0997 11.3L97.7997 24.6C101.7 23.2 103.7 20.2 103.1 16.6C102.5 13.2 99.3997 9.69999 95.1997 9.69999C93.4997 9.59999 91.7997 10.1 90.0997 11.3Z" fill="black"/>
</g>
<mask id="mask8_60_3" style="mask-type:luminance" maskUnits="userSpaceOnUse" x="18" y="1" width="92" height="126">
<path d="M18.7998 1H109.3V127H18.7998V1Z" fill="white"/>
</mask>
<g mask="url(#mask8_60_3)">
<path fill-rule="evenodd" clip-rule="evenodd" d="M92 112.3C94.7 114 99.7 119.1 95.6 121.6C91.7 125.2 89.5 117.6 86 116.6C87.5 114.6 89.4 112.7 92 112.3Z" fill="#F6D2A2"/>
</g>
<mask id="mask9_60_3" style="mask-type:luminance" maskUnits="userSpaceOnUse" x="18" y="1" width="92" height="126">
<path d="M18.7998 1H109.3V127H18.7998V1Z" fill="white"/>
</mask>
<g mask="url(#mask9_60_3)">
<path d="M93.4999 122.9C91.8999 122.9 90.4999 121.3 89.2999 119.8C88.1999 118.6 87.0999 117.3 85.8999 116.9L85.3999 116.8L85.6999 116.4C86.8999 114.7 88.8999 112.5 91.8999 112H91.9999L92.0999 112.1C93.7999 113.2 97.4999 116.3 97.3999 119.2C97.3999 120.3 96.7999 121.2 95.6999 121.9C94.9999 122.6 94.2999 122.9 93.4999 122.9ZM86.4999 116.4C87.6999 116.9 88.6999 118.2 89.6999 119.3C90.8999 120.8 92.0999 122.1 93.3999 122.1C93.9999 122.1 94.5999 121.8 95.1999 121.2H95.2999C96.1999 120.6 96.6999 119.9 96.6999 119C96.6999 116.7 93.7999 113.8 91.7999 112.5C89.9999 113 88.1999 114.2 86.4999 116.4ZM95.5999 121.9C95.4999 121.9 95.3999 121.8 95.2999 121.7C95.0999 121.3 94.8999 120.8 94.7999 120.4C94.4999 119.6 94.1999 118.8 93.5999 118.2C93.4999 118.1 93.4999 117.9 93.5999 117.7C93.6999 117.6 93.8999 117.6 94.0999 117.7C94.7999 118.4 95.1999 119.3 95.4999 120.2L95.9999 121.4C96.0999 121.6 95.9999 121.8 95.8999 121.9H95.5999Z" fill="black"/>
</g>
<mask id="mask10_60_3" style="mask-type:luminance" maskUnits="userSpaceOnUse" x="18" y="1" width="92" height="126">
<path d="M18.7998 1H109.3V127H18.7998V1Z" fill="white"/>
</mask>
<g mask="url(#mask10_60_3)">
<path fill-rule="evenodd" clip-rule="evenodd" d="M43.1997 118.1C39.9997 118.6 38.1997 121.5 35.4997 123C32.9997 124.5 31.9997 122.5 31.7997 122.1C31.3997 121.9 31.3997 122.3 30.7997 121.7C28.4997 118 33.1997 115.3 35.6997 113.5C39.1997 112.7 41.3997 115.7 43.1997 118.1Z" fill="#F6D2A2"/>
</g>
<mask id="mask11_60_3" style="mask-type:luminance" maskUnits="userSpaceOnUse" x="18" y="1" width="92" height="126">
<path d="M18.7998 1H109.3V127H18.7998V1Z" fill="white"/>
</mask>
<g mask="url(#mask11_60_3)">
<path d="M33.7997 123.8C32.4997 123.8 31.7997 122.7 31.5997 122.3H31.4997C31.1997 122.3 30.9997 122.2 30.5997 121.8V121.7C28.3997 118.2 32.1997 115.5 34.6997 113.7L35.5997 113.1H35.7997C36.1997 113 36.4997 113 36.8997 113C39.8997 113 41.7997 115.6 43.3997 117.7L43.8997 118.4L43.2997 118.5C41.3997 118.8 39.9997 120 38.5997 121.2C37.6997 122 36.7997 122.7 35.7997 123.3C34.9997 123.6 34.3997 123.8 33.7997 123.8ZM31.5997 121.7C31.6997 121.7 31.7997 121.7 31.9997 121.8H32.0997L32.1997 121.9C32.3997 122.2 32.8997 123.1 33.8997 123.1C34.3997 123.1 34.8997 122.9 35.3997 122.6C36.3997 122.1 37.2997 121.3 38.0997 120.6C39.3997 119.5 40.7997 118.3 42.5997 117.8C41.0997 115.8 39.2997 113.6 36.7997 113.6C36.4997 113.6 36.1997 113.6 35.8997 113.7L35.0997 114.3C32.4997 116.1 29.2997 118.4 31.1997 121.4C31.2997 121.6 31.3997 121.7 31.5997 121.7ZM31.7997 122.4C31.5997 122.4 31.3997 122.2 31.4997 122C31.5997 121 32.0997 120.3 32.5997 119.5C32.8997 119.1 33.0997 118.7 33.2997 118.3C33.3997 118.1 33.5997 118.1 33.6997 118.1C33.8997 118.2 33.8997 118.4 33.8997 118.5C33.6997 119 33.3997 119.4 33.0997 119.8C32.5997 120.5 32.1997 121.1 32.0997 121.9C32.0997 122.3 31.9997 122.4 31.7997 122.4Z" fill="black"/>
</g>
<mask id="mask12_60_3" style="mask-type:luminance" maskUnits="userSpaceOnUse" x="18" y="1" width="92" height="126">
<path d="M18.7998 1H109.3V127H18.7998V1Z" fill="white"/>
</mask>
<g mask="url(#mask12_60_3)">
<path fill-rule="evenodd" clip-rule="evenodd" d="M29.8999 21.7C28.0999 20.8 26.7999 19.5 27.8999 17.4C28.8999 15.5 30.7999 15.7 32.5999 16.6L29.8999 21.7ZM94.7999 19.9C96.5999 19 97.8999 17.7 96.7999 15.6C95.7999 13.7 93.8999 13.9 92.0999 14.8L94.7999 19.9Z" fill="black"/>
</g>
<mask id="mask13_60_3" style="mask-type:luminance" maskUnits="userSpaceOnUse" x="18" y="1" width="92" height="126">
<path d="M18.7998 1H109.3V127H18.7998V1Z" fill="white"/>
</mask>
<g mask="url(#mask13_60_3)">
<path fill-rule="evenodd" clip-rule="evenodd" d="M107.1 68.2C106.9 71.7 103.4 70.1 101.8 69C100.3 67.9 99.8 68.8 99.7 66.7C99.6 65.3 99.5 64 99.5 62.6C101.8 62.4 104.3 62.9 106.2 64.3C107.2 65.1 109 67.3 107.1 68.2Z" fill="#F6D2A2"/>
</g>
<mask id="mask14_60_3" style="mask-type:luminance" maskUnits="userSpaceOnUse" x="18" y="1" width="92" height="126">
<path d="M18.7998 1H109.3V127H18.7998V1Z" fill="white"/>
</mask>
<g mask="url(#mask14_60_3)">
<path d="M105.3 70.7C103.8 70.7 102.1 69.6 101.6 69.3C101.1 69 100.8 68.8 100.5 68.7C99.6996 68.4 99.4996 68.2 99.3996 66.7C99.3996 66.4 99.3996 66.1 99.2996 65.8C99.1996 64.8 99.0996 63.7 99.1996 62.6V62.3H100.5C102.7 62.3 104.8 62.9 106.4 64.1C107.1 64.6 108.4 66 108.3 67.2C108.3 67.6 108.1 68.1 107.5 68.4C107.3 70.4 106 70.7 105.3 70.7ZM99.7996 63C99.7996 63.9 99.7996 64.9 99.8996 65.8C99.8996 66.1 99.8996 66.4 99.9996 66.7C100.1 67.9 100.2 67.9 100.7 68.1C101 68.2 101.4 68.4 102 68.7C102.9 69.3 104.3 70 105.3 70C105.9 70 106.7 69.8 106.8 68.2V68L107 67.9C107.4 67.7 107.6 67.5 107.6 67.1C107.7 66.3 106.7 65.1 106 64.6C104.5 63.5 102.5 62.9 100.5 62.9C100.3 63 100.1 63 99.7996 63Z" fill="black"/>
</g>
<mask id="mask15_60_3" style="mask-type:luminance" maskUnits="userSpaceOnUse" x="18" y="1" width="92" height="126">
<path d="M18.7998 1H109.3V127H18.7998V1Z" fill="white"/>
</mask>
<g mask="url(#mask15_60_3)">
<path fill-rule="evenodd" clip-rule="evenodd" d="M107.1 68.2C106.6 68 106 67.9 105.7 67.4Z" fill="#C6B198"/>
</g>
<mask id="mask16_60_3" style="mask-type:luminance" maskUnits="userSpaceOnUse" x="18" y="1" width="92" height="126">
<path d="M18.7998 1H109.3V127H18.7998V1Z" fill="white"/>
</mask>
<g mask="url(#mask16_60_3)">
<path d="M107.1 68.6H107L106.8 68.5C106.3 68.3 105.8 68.2 105.5 67.7C105.4 67.6 105.4 67.3 105.6 67.2C105.7 67.1 106 67.1 106.1 67.3C106.3 67.6 106.7 67.7 107.1 67.9C107.2 67.9 107.3 68 107.3 68C107.5 68.1 107.6 68.3 107.5 68.4C107.4 68.5 107.2 68.6 107.1 68.6Z" fill="black"/>
</g>
<mask id="mask17_60_3" style="mask-type:luminance" maskUnits="userSpaceOnUse" x="18" y="1" width="92" height="126">
<path d="M18.7998 1H109.3V127H18.7998V1Z" fill="white"/>
</mask>
<g mask="url(#mask17_60_3)">
<path fill-rule="evenodd" clip-rule="evenodd" d="M62.7999 4C76.3999 4 89.0999 5.9 95.7999 19C101.8 33.6 99.5999 49.4 100.6 64.9C101.4 78.2 103.1 93.5 96.9999 105.8C90.4999 118.7 74.2999 122 60.9999 121.5C50.4999 121.1 37.8999 117.7 31.8999 108.1C24.9999 96.9 28.1999 80.2 28.6999 67.7C29.2999 52.9 24.6999 38 29.5999 23.6C34.4999 8.5 48.0999 5.1 62.7999 4Z" fill="#6AD7E5"/>
</g>
<mask id="mask18_60_3" style="mask-type:luminance" maskUnits="userSpaceOnUse" x="18" y="1" width="92" height="126">
<path d="M18.7998 1H109.3V127H18.7998V1Z" fill="white"/>
</mask>
<g mask="url(#mask18_60_3)">
<path d="M63.3 121.9H60.8C56.7 121.8 50.5 121.1 44.4 118.6C38.5 116.2 34.2 112.8 31.4 108.3C25.8 99.2 26.8 86.7 27.7 75.6C27.9 72.8 28.1 70.2 28.2 67.7C28.4 62.5 28 57.1 27.5 52C26.7 42.6 25.9 32.9 29 23.5C31.4 16.5 35.7 11.5 42.2 8.30003C47.3 5.80003 53.6 4.40003 62.6 3.70003C76 3.60003 89.3 5.50002 96 18.8C100.4 29.5 100.4 41 100.5 52.1C100.5 56.3 100.5 60.6 100.8 64.8C100.9 66.1 101 67.4 101 68.7C101.8 80.9 102.7 94.7 97.1 105.9C94.3 111.6 89.4 115.8 82.7 118.5C77.3 120.7 70.5 121.9 63.3 121.9ZM62.8 4.30003C48.7 5.40003 34.9 8.50003 29.8 23.7C26.7 33 27.5 42.6 28.3 51.9C28.7 57.1 29.2 62.4 29 67.7C28.9 70.2 28.7 72.8 28.5 75.6C27.6 86.6 26.6 99 32.1 107.9C34.4 111.6 41.8001 120.4 60.9001 121.1H63.4001C85.5001 121.1 93.7 111.3 96.7 105.5C102.2 94.5 101.3 80.7 100.6 68.6C100.5 67.3 100.4 66 100.4 64.7C100.2 60.5 100.1 56.2 100.1 52C100 41 100 29.5 95.7 18.9C92.7 13 88.2 9.00003 82 6.70003C75.6 4.60003 68.4 4.30003 62.8 4.30003Z" fill="black"/>
</g>
<mask id="mask19_60_3" style="mask-type:luminance" maskUnits="userSpaceOnUse" x="18" y="1" width="92" height="126">
<path d="M18.7998 1H109.3V127H18.7998V1Z" fill="white"/>
</mask>
<g mask="url(#mask19_60_3)">
<path fill-rule="evenodd" clip-rule="evenodd" d="M65.2 22.2C67.6 36.4 90.8 32.6 87.5 18.3C84.5 5.49999 64.4 9.09999 65.2 22.2Z" fill="white"/>
</g>
<mask id="mask20_60_3" style="mask-type:luminance" maskUnits="userSpaceOnUse" x="18" y="1" width="92" height="126">
<path d="M18.7998 1H109.3V127H18.7998V1Z" fill="white"/>
</mask>
<g mask="url(#mask20_60_3)">
<path d="M76.2 31.5C71.7 31.5 66 29.1 64.8 22.3C64.6 19.1 65.6 16.2 67.7 14C70 11.5 73.5 10.1 77.1 10.1C81.3 10.1 86.3 12.3 87.7 18.4C88.5 21.8 87.9 24.8 86 27.2C83.9 29.8 80.2 31.5 76.2 31.5ZM65.5 22.2C66 25 67.3 27.2 69.4 28.8C71.2 30.2 73.7 30.9 76.2 30.9C79.9 30.9 83.5 29.3 85.5 26.8C87.3 24.6 87.8 21.7 87.1 18.5C85.8 12.8 81.1 10.8 77.1 10.8C73.7 10.8 70.4 12.2 68.2 14.5C66.3 16.5 65.3 19.2 65.5 22.2Z" fill="black"/>
</g>
<mask id="mask21_60_3" style="mask-type:luminance" maskUnits="userSpaceOnUse" x="18" y="1" width="92" height="126">
<path d="M18.7998 1H109.3V127H18.7998V1Z" fill="white"/>
</mask>
<g mask="url(#mask21_60_3)">
<path fill-rule="evenodd" clip-rule="evenodd" d="M37.4996 24.5C40.6996 36.8 60.3996 33.7 59.6996 21.3C58.7996 6.5 34.3996 9.30001 37.4996 24.5Z" fill="white"/>
</g>
<mask id="mask22_60_3" style="mask-type:luminance" maskUnits="userSpaceOnUse" x="18" y="1" width="92" height="126">
<path d="M18.7998 1H109.3V127H18.7998V1Z" fill="white"/>
</mask>
<g mask="url(#mask22_60_3)">
<path d="M48 32.7C43.7 32.7 38.7 30.6 37.1 24.6C36.4 21.1 37.1 17.9 39.1 15.5C41.3 12.8 44.9 11.2 48.8 11.2C54 11.2 59.5 14.3 59.9 21.3C60.1 24.2 59.2 26.8 57.2 28.9C55.1 31.2 51.6 32.7 48 32.7ZM48.8 11.9C45.1 11.9 41.7 13.4 39.6 15.9C37.7 18.2 37.1 21.1 37.8 24.4C39.2 30 44 32 48 32C51.4 32 54.7 30.7 56.8 28.4C58.6 26.5 59.5 24 59.3 21.3C59.1 17 56.2 11.9 48.8 11.9Z" fill="black"/>
</g>
<mask id="mask23_60_3" style="mask-type:luminance" maskUnits="userSpaceOnUse" x="18" y="1" width="92" height="126">
<path d="M18.7998 1H109.3V127H18.7998V1Z" fill="white"/>
</mask>
<g mask="url(#mask23_60_3)">
<path fill-rule="evenodd" clip-rule="evenodd" d="M67.9997 39.2C67.9997 41 68.3997 43.1 68.0997 45.1C67.5997 46 66.6997 46.1 65.8997 46.4C64.7997 46.2 63.8997 45.5 63.3997 44.5C63.0997 42.3 63.4997 40.1 63.5997 37.9L67.9997 39.2Z" fill="white"/>
</g>
<mask id="mask24_60_3" style="mask-type:luminance" maskUnits="userSpaceOnUse" x="18" y="1" width="92" height="126">
<path d="M18.7998 1H109.3V127H18.7998V1Z" fill="white"/>
</mask>
<g mask="url(#mask24_60_3)">
<path d="M65.8998 46.8C64.5998 46.6 63.5998 45.8 63.0998 44.7C62.8998 43.1 62.9998 41.6 63.0998 40.1C63.1998 39.4 63.1998 38.7 63.1998 38V37.6L68.2998 39.2V39.4C68.2998 40 68.3998 40.6 68.3998 41.3C68.4998 42.6 68.5998 44 68.3998 45.3V45.4C67.9998 46.2 67.2998 46.4 66.5998 46.7C66.3998 46.6 66.1998 46.7 65.8998 46.8ZM63.6998 44.4C64.0998 45.3 64.8998 45.9 65.7998 46.1C65.9998 46 66.1998 46 66.2998 45.9C66.8998 45.7 67.3998 45.5 67.6998 45C67.8998 43.8 67.7998 42.5 67.6998 41.2C67.6998 40.6 67.5998 40 67.5998 39.5L63.7998 38.3C63.7998 38.9 63.6998 39.5 63.6998 40C63.5998 41.6 63.4998 43 63.6998 44.4Z" fill="black"/>
</g>
<mask id="mask25_60_3" style="mask-type:luminance" maskUnits="userSpaceOnUse" x="18" y="1" width="92" height="126">
<path d="M18.7998 1H109.3V127H18.7998V1Z" fill="white"/>
</mask>
<g mask="url(#mask25_60_3)">
<path fill-rule="evenodd" clip-rule="evenodd" d="M46.2997 22.5C46.2997 24.5 44.7997 26.1 42.9997 26.1C41.1997 26.1 39.6997 24.5 39.6997 22.5C39.6997 20.5 41.1997 18.9 42.9997 18.9C44.7997 18.9 46.2997 20.5 46.2997 22.5Z" fill="black"/>
</g>
<mask id="mask26_60_3" style="mask-type:luminance" maskUnits="userSpaceOnUse" x="18" y="1" width="92" height="126">
<path d="M18.7998 1H109.3V127H18.7998V1Z" fill="white"/>
</mask>
<g mask="url(#mask26_60_3)">
<path fill-rule="evenodd" clip-rule="evenodd" d="M45.1996 23.3C45.1996 23.8 44.7996 24.2 44.3996 24.2C43.9996 24.2 43.5996 23.8 43.5996 23.3C43.5996 22.8 43.9996 22.4 44.3996 22.4C44.8996 22.4 45.1996 22.8 45.1996 23.3Z" fill="white"/>
</g>
<mask id="mask27_60_3" style="mask-type:luminance" maskUnits="userSpaceOnUse" x="18" y="1" width="92" height="126">
<path d="M18.7998 1H109.3V127H18.7998V1Z" fill="white"/>
</mask>
<g mask="url(#mask27_60_3)">
<path fill-rule="evenodd" clip-rule="evenodd" d="M74.1996 21.6C74.1996 23.6 72.6996 25.2 70.8996 25.2C69.0996 25.2 67.5996 23.6 67.5996 21.6C67.5996 19.6 69.0996 18 70.8996 18C72.6996 18 74.1996 19.6 74.1996 21.6Z" fill="black"/>
</g>
<mask id="mask28_60_3" style="mask-type:luminance" maskUnits="userSpaceOnUse" x="18" y="1" width="92" height="126">
<path d="M18.7998 1H109.3V127H18.7998V1Z" fill="white"/>
</mask>
<g mask="url(#mask28_60_3)">
<path fill-rule="evenodd" clip-rule="evenodd" d="M73.1997 22.4C73.1997 22.9 72.8997 23.3 72.3997 23.3C71.9997 23.3 71.5997 22.9 71.5997 22.4C71.5997 21.9 71.8997 21.5 72.3997 21.5C72.7997 21.5 73.1997 21.9 73.1997 22.4ZM58.3997 39C56.8997 42.5 59.1997 49.6 63.1997 44.4C62.8997 42.2 63.2997 40 63.3997 37.8L58.3997 39Z" fill="white"/>
</g>
<mask id="mask29_60_3" style="mask-type:luminance" maskUnits="userSpaceOnUse" x="18" y="1" width="92" height="126">
<path d="M18.7998 1H109.3V127H18.7998V1Z" fill="white"/>
</mask>
<g mask="url(#mask29_60_3)">
<path d="M60.4999 46.6C59.7999 46.6 59.0999 46.2 58.5999 45.4C57.4999 43.8 57.2999 40.8 58.0999 38.9L58.1999 38.7L63.6999 37.3V37.7L63.5999 39.9C63.4999 41.4 63.3999 42.8 63.5999 44.3V44.4L63.4999 44.5C62.4999 45.9 61.4999 46.6 60.4999 46.6ZM58.6999 39.3C58.0999 41 58.2999 43.7 59.1999 45C59.5999 45.6 59.9999 45.9 60.4999 45.9C61.1999 45.9 61.9999 45.3 62.7999 44.3C62.5999 42.8 62.6999 41.3 62.8999 39.9L62.9999 38.2L58.6999 39.3Z" fill="black"/>
</g>
<mask id="mask30_60_3" style="mask-type:luminance" maskUnits="userSpaceOnUse" x="18" y="1" width="92" height="126">
<path d="M18.7998 1H109.3V127H18.7998V1Z" fill="white"/>
</mask>
<g mask="url(#mask30_60_3)">
<path fill-rule="evenodd" clip-rule="evenodd" d="M58.8999 32.2C56.1999 32.4 53.9999 35.7 55.3999 38.2C57.2999 41.6 61.3999 37.9 63.9999 38.2C66.9999 38.3 69.3999 41.4 71.7999 38.8C74.4999 35.9 70.5999 33.1 67.6999 31.8L58.8999 32.2Z" fill="#F6D2A2"/>
</g>
<mask id="mask31_60_3" style="mask-type:luminance" maskUnits="userSpaceOnUse" x="18" y="1" width="92" height="126">
<path d="M18.7998 1H109.3V127H18.7998V1Z" fill="white"/>
</mask>
<g mask="url(#mask31_60_3)">
<path d="M69.6997 40.2C68.7997 40.2 67.8997 39.8 66.9997 39.4C66.0997 39 65.0997 38.6 63.9997 38.6H63.6997C62.8997 38.6 61.9997 38.9 60.9997 39.3C59.8997 39.7 58.7997 40 57.7997 40C56.5997 40 55.6997 39.5 55.0997 38.4C54.3997 37.2 54.4997 35.8 55.1997 34.5C55.9997 33 57.3997 32.1 58.8997 31.9L67.7997 31.5H67.8997C70.0997 32.4 72.5997 34.1 73.0997 36.1C73.2997 37.1 72.9997 38.1 72.1997 39C71.3997 39.9 70.5997 40.2 69.6997 40.2ZM64.0997 38C65.1997 38 66.2997 38.5 67.2997 38.9C68.1997 39.3 68.9997 39.6 69.7997 39.6C70.4997 39.6 71.0997 39.3 71.6997 38.7C72.3997 38 72.5997 37.2 72.4997 36.4C72.0997 34.7 69.6997 33.1 67.7997 32.3L59.0997 32.7C57.7997 32.8 56.5997 33.7 55.8997 34.9C55.2997 36 55.2997 37.2 55.7997 38.2C56.2997 39.1 56.8997 39.5 57.8997 39.5C58.7997 39.5 59.7997 39.1 60.7997 38.8C61.8997 38.4 62.7997 38.1 63.7997 38.1C63.7997 37.9 63.8997 37.9 64.0997 38Z" fill="#231F20"/>
</g>
<mask id="mask32_60_3" style="mask-type:luminance" maskUnits="userSpaceOnUse" x="18" y="1" width="92" height="126">
<path d="M18.7998 1H109.3V127H18.7998V1Z" fill="white"/>
</mask>
<g mask="url(#mask32_60_3)">
<path fill-rule="evenodd" clip-rule="evenodd" d="M58.6 32.1C58.4 27.4 67.4 26.8 68.4 30.7C69.5 34.7 59 35.6 58.6 32.1Z" fill="black"/>
</g>
</svg>
