<svg width="100%" height="100%" viewBox="0 0 100 100" fill="none"
    xmlns="http://www.w3.org/2000/svg">
    <path d="M18.4437 85.0031L11.4219 6.25H88.5781L81.5469 84.9906L49.9531 93.75L18.4437 85.0031Z" fill="#E44F26" />
    <path d="M50 87.0563L75.5313 79.9781L81.5375 12.6906H50V87.0563Z" fill="#F1662A" />
    <path d="M50 41.8969H37.2187L36.3375 32.0063H50V22.3469H25.7812L26.0125 24.9406L28.3844 51.5563H50V41.8969ZM50 66.9813L49.9563 66.9938L39.2 64.0906L38.5125 56.3875H28.8156L30.1688 71.55L49.9563 77.0437L50 77.0313V66.9813Z" fill="#EBEBEB" />
    <path d="M49.9656 41.8969V51.5563H61.8594L60.7406 64.0844L49.9656 66.9906V77.0406L69.7688 71.55L69.9125 69.9188L72.1813 44.4906L72.4188 41.8969H49.9656ZM49.9656 22.3469V32.0063H73.2969L73.4906 29.8375L73.9313 24.9406L74.1625 22.3469H49.9656Z" fill="white" />
</svg>
