<svg width="100%" height="100%" viewBox="0 0 128 128" fill="none" xmlns="http://www.w3.org/2000/svg">
<g clip-path="url(#clip0_38_3)">
<path d="M0 91.313H4.242V74.566L10.808 89.164C11.581 90.934 12.64 91.555 14.722 91.555C16.804 91.555 17.82 90.934 18.593 89.164L25.159 74.566V91.312H29.401V74.594C29.401 72.961 28.749 72.172 27.401 71.766C24.178 70.762 22.018 71.629 21.038 73.805L14.597 88.215L8.359 73.805C7.422 71.629 5.219 70.762 2 71.766C0.652 72.172 0 72.961 0 74.594L0 91.313ZM32.93 77.68H37.168V86.907C37.129 87.407 37.328 88.583 39.652 88.622H48.875V77.633H53.125C53.145 77.633 53.117 92.617 53.117 92.68C53.14 96.375 48.535 97.176 46.41 97.239H33.02V94.387L46.434 94.383C49.164 94.098 48.84 92.738 48.84 92.285V91.172H39.828C35.633 91.133 32.965 89.301 32.93 87.195C32.926 87.004 33.02 77.774 32.93 77.68Z" fill="#00618A"/>
<path d="M56.391 91.313H68.586C70.012 91.313 71.399 91.012 72.5 90.497C74.336 89.657 75.23 88.513 75.23 87.017V83.919C75.23 82.696 74.214 81.552 72.214 80.794C71.155 80.384 69.847 80.169 68.585 80.169H63.444C61.733 80.169 60.917 79.653 60.714 78.513C60.675 78.376 60.675 78.267 60.675 78.13V76.2C60.675 76.091 60.675 75.981 60.714 75.845C60.917 74.978 61.366 74.732 62.874 74.595L63.284 74.568H75.393V71.744H63.488C61.777 71.744 60.879 71.853 60.062 72.096C57.535 72.885 56.433 74.135 56.433 76.311V78.784C56.433 80.686 58.593 82.319 62.222 82.698L63.445 82.753H67.851C68.015 82.753 68.175 82.753 68.3 82.78C69.644 82.889 70.214 83.135 70.624 83.624C70.835 83.819 70.956 84.097 70.948 84.382V86.859C70.948 87.156 70.745 87.539 70.339 87.863C69.972 88.191 69.359 88.406 68.546 88.461L68.097 88.488H56.391V91.313ZM101.688 86.391C101.688 89.301 103.852 90.93 108.211 91.258L109.438 91.313H120.489V88.485H109.356C106.868 88.485 105.93 87.86 105.93 86.364V71.738H101.692V86.39L101.688 86.391ZM77.938 86.539V76.457C77.938 73.898 79.739 72.344 83.293 71.855C83.6722 71.8003 84.0549 71.7729 84.438 71.773H92.485C92.895 71.773 93.262 71.8 93.673 71.855C97.228 72.343 99.025 73.898 99.025 76.457V86.539C99.025 88.617 98.263 89.727 96.502 90.453L100.682 94.223H95.756L92.377 91.172L88.975 91.387H84.44C83.5971 91.3844 82.7586 91.266 81.948 91.035C79.249 90.301 77.94 88.883 77.94 86.539H77.938ZM82.516 86.293C82.516 86.43 82.555 86.566 82.598 86.731C82.844 87.903 83.946 88.555 85.621 88.555H89.473L85.934 85.36H90.86L93.946 88.149C94.516 87.844 94.887 87.383 95.02 86.786C95.059 86.649 95.059 86.513 95.059 86.376V76.708C95.059 76.599 95.059 76.462 95.02 76.325C94.774 75.235 93.672 74.61 92.036 74.61H85.622C83.743 74.61 82.517 75.426 82.517 76.708L82.516 86.293Z" fill="#E48E00"/>
<path d="M124.219 67.0471C121.614 66.9771 119.621 67.2191 117.918 67.9381C117.434 68.1411 116.66 68.1451 116.582 68.7511C116.848 69.0321 116.891 69.4501 117.102 69.7901C117.508 70.4501 118.196 71.3291 118.809 71.7901L120.883 73.2741C122.156 74.0511 123.582 74.4971 124.813 75.2741C125.536 75.7351 126.254 76.3131 126.961 76.8331C127.309 77.0871 127.543 77.4891 128 77.6491V77.5751C127.762 77.2701 127.699 76.8521 127.48 76.5361L126.515 75.5711C125.574 74.3211 124.378 73.2231 123.105 72.3091C122.089 71.5821 119.824 70.5981 119.398 69.4181L119.324 69.3441C120.043 69.2661 120.887 69.0041 121.547 68.8281C122.664 68.5271 123.66 68.6051 124.809 68.3081L126.368 67.8591V67.5661C125.786 66.9681 125.372 66.1791 124.735 65.6361C123.079 64.2261 121.266 62.8121 119.399 61.6321C118.364 60.9801 117.087 60.5581 115.989 60.0031C115.622 59.8161 114.973 59.7221 114.727 59.4091C114.153 58.6751 113.84 57.7451 113.395 56.8891L110.727 51.2561C110.165 49.9711 109.797 48.7011 109.094 47.5491C105.731 42.0141 102.106 38.6741 96.492 35.3931C95.301 34.6941 93.859 34.4201 92.344 34.0611L89.895 33.9131C89.399 33.7021 88.883 33.0931 88.415 32.8001C86.556 31.6241 81.786 29.0701 80.407 32.4291C79.54 34.5501 81.708 36.6201 82.485 37.6951C83.028 38.4491 83.727 39.2931 84.114 40.1401C84.372 40.6951 84.415 41.2531 84.634 41.8431C85.173 43.2961 85.642 44.8741 86.341 46.2181C86.693 46.8981 87.079 47.6131 87.525 48.2181C87.798 48.5891 88.267 48.7571 88.341 49.3311C87.884 49.9721 87.857 50.9641 87.599 51.7761C86.439 55.4281 86.876 59.9671 88.564 62.6741C89.08 63.5021 90.298 65.2831 91.974 64.6001C93.439 64.0021 93.111 62.1551 93.529 60.5221C93.627 60.1551 93.568 59.8811 93.752 59.6351V59.7091L95.088 62.3771C96.076 63.9671 97.826 65.6271 99.311 66.7481C100.084 67.3301 100.69 68.3381 101.686 68.6781V68.6001H101.612C101.417 68.3031 101.116 68.1781 100.87 67.9361C100.288 67.3661 99.643 66.6591 99.167 66.0061C97.815 64.1741 96.62 62.1661 95.534 60.0761C95.014 59.0801 94.561 57.9781 94.124 56.9631C93.956 56.5721 93.96 55.9791 93.608 55.7791C93.128 56.5211 92.421 57.1231 92.049 58.0021C91.455 59.4041 91.381 61.1191 91.158 62.8931L91.01 62.9671C89.979 62.7171 89.615 61.6551 89.233 60.7441C88.26 58.4391 88.081 54.7241 88.936 52.0721C89.155 51.3851 90.155 49.2201 89.749 48.5881C89.558 47.9551 88.921 47.5881 88.565 47.1041C88.0996 46.455 87.7019 45.7601 87.378 45.0301C86.585 43.2291 86.214 41.2141 85.378 39.3971C84.98 38.5261 84.304 37.6471 83.749 36.8741C83.132 36.0191 82.444 35.3901 81.968 34.3541C81.8 33.9871 81.57 33.3971 81.82 33.0181C81.898 32.7641 82.015 32.6591 82.265 32.5771C82.695 32.2451 83.894 32.6861 84.339 32.8701C85.53 33.3661 86.523 33.8351 87.53 34.5031C88.01 34.8231 88.499 35.4441 89.085 35.6161H89.753C90.796 35.8541 91.964 35.6861 92.941 35.9831C94.664 36.5061 96.211 37.3231 97.609 38.2101C101.882 40.9051 105.375 44.7451 107.765 49.3271C108.152 50.0651 108.316 50.7681 108.656 51.5501C109.34 53.1281 110.199 54.7531 110.879 56.2961C111.559 57.8391 112.219 59.3901 113.176 60.6711C113.68 61.3431 115.629 61.7021 116.512 62.0771C117.133 62.3391 118.149 62.6121 118.735 62.9681C119.86 63.6441 120.946 64.4481 122.001 65.1911C122.524 65.5661 124.142 66.3791 124.224 67.0461L124.219 67.0471ZM91.082 38.8051C90.6336 38.7978 90.186 38.8476 89.75 38.9531V39.0271H89.824C90.082 39.5621 90.539 39.9061 90.859 40.3631L91.601 41.9181L91.675 41.8481C92.136 41.5241 92.343 41.0041 92.343 40.2151C92.156 40.0201 92.132 39.7781 91.972 39.5471C91.761 39.2381 91.352 39.0671 91.082 38.8051Z" fill="#00618A"/>
</g>
<defs>
<clipPath id="clip0_38_3">
<rect width="128" height="128" fill="white"/>
</clipPath>
</defs>
</svg>
