<svg width="100%" height="100%" viewBox="0 0 100 100" fill="none" xmlns="http://www.w3.org/2000/svg">
<path d="M50 93.75C48.8196 93.7506 47.6598 93.4401 46.6375 92.85L35.9375 86.5156C34.3407 85.6218 35.1188 85.3062 35.6469 85.1218C37.3456 84.598 38.9718 83.8631 40.4875 82.9343C40.6142 82.8747 40.7542 82.8489 40.8938 82.8593C41.0334 82.8697 41.168 82.916 41.2844 82.9937L49.5063 87.8781C49.6594 87.9591 49.83 88.0014 50.0032 88.0014C50.1764 88.0014 50.3469 87.9591 50.5 87.8781L82.5625 69.3718C82.7132 69.2827 82.8378 69.1555 82.9239 69.003C83.01 68.8506 83.0546 68.6782 83.0532 68.5031V31.4843C83.0536 31.3066 83.008 31.1318 82.921 30.9768C82.8339 30.8219 82.7083 30.6921 82.5563 30.6L50.4938 12.1093C50.3429 12.0233 50.1722 11.9781 49.9985 11.9781C49.8248 11.9781 49.6541 12.0233 49.5032 12.1093L17.4594 30.6062C17.3066 30.6966 17.1796 30.8249 17.091 30.9788C17.0023 31.1326 16.9548 31.3068 16.9532 31.4843V68.4875C16.9552 68.6617 17.0027 68.8323 17.0909 68.9825C17.1792 69.1327 17.3051 69.2572 17.4563 69.3437L26.25 74.4187C31.0157 76.8 33.9344 73.9937 33.9344 71.175V34.6406C33.9344 34.392 34.0332 34.1535 34.209 33.9777C34.3848 33.8019 34.6233 33.7031 34.8719 33.7031H38.9344C39.183 33.7031 39.4215 33.8019 39.5973 33.9777C39.7731 34.1535 39.8719 34.392 39.8719 34.6406V71.1781C39.8719 77.5375 36.4094 81.1781 30.3782 81.1781C27.7765 81.2215 25.2158 80.5258 22.9938 79.1718L14.5657 74.3375C13.5433 73.7407 12.6951 72.8867 12.1052 71.8604C11.5152 70.8341 11.2043 69.6712 11.2032 68.4875V31.4843C11.1995 30.2984 11.5083 29.1324 12.0986 28.1037C12.6889 27.0751 13.5398 26.2201 14.5657 25.625L46.6313 7.11247C47.6645 6.54848 48.8229 6.25293 50 6.25293C51.1772 6.25293 52.3355 6.54848 53.3688 7.11247L85.4313 25.625C86.4533 26.2208 87.3016 27.0737 87.892 28.0988C88.4824 29.124 88.7944 30.2857 88.7969 31.4687V68.4875C88.7955 69.6715 88.484 70.8346 87.8936 71.8609C87.3031 72.8872 86.4542 73.7411 85.4313 74.3375L53.3688 92.85C52.3446 93.4412 51.1826 93.7517 50 93.75Z" fill="#83CD29"/>
<path d="M43.9189 56.1031C43.9189 55.8545 44.0177 55.616 44.1935 55.4402C44.3693 55.2644 44.6078 55.1656 44.8564 55.1656H49.0033C49.2249 55.1663 49.4391 55.2455 49.6078 55.3891C49.7766 55.5327 49.889 55.7314 49.9252 55.95C50.5502 60.1719 52.4252 62.3 60.9033 62.3C67.6564 62.3 70.5346 60.7719 70.5346 57.1875C70.5346 55.1219 69.7189 53.5875 59.2221 52.5594C50.4471 51.6906 45.0221 49.7469 45.0221 42.7344C45.0221 36.2656 50.4752 32.4062 59.6158 32.4062C69.8877 32.4062 74.9721 35.9719 75.6158 43.6219C75.6257 43.7496 75.6092 43.878 75.5675 43.9991C75.5258 44.1202 75.4597 44.2315 75.3733 44.3261C75.2869 44.4207 75.1821 44.4965 75.0652 44.549C74.9484 44.6015 74.822 44.6295 74.6939 44.6312H70.5189C70.3095 44.6283 70.1071 44.5553 69.9439 44.4239C69.7808 44.2925 69.6664 44.1103 69.6189 43.9063C68.6221 39.4656 66.1814 38.0469 59.6189 38.0469C52.2439 38.0469 51.3877 40.6156 51.3877 42.5406C51.3877 44.8719 52.4002 45.5531 62.3564 46.8688C72.2096 48.1719 76.8908 50.0156 76.8908 56.9406C76.8908 63.9281 71.0658 67.9281 60.9064 67.9281C46.8596 67.9469 43.9189 61.5062 43.9189 56.1031Z" fill="#83CD29"/>
</svg>
