<svg width="100%" height="100%" viewBox="0 0 100 100" fill="none" xmlns="http://www.w3.org/2000/svg">
<path d="M30.6772 85.1326L30.4553 84.6897C30.0124 83.8029 30.0124 82.9162 30.2342 81.8076H6.29594L41.7608 18.8592L56.6116 45.6795L61.4874 42.1326L46.6366 15.3123C46.4155 14.8693 44.642 12.21 41.7608 12.21C40.4303 12.21 38.4358 12.6529 36.8842 15.5342L0.976412 79.1482C0.754537 79.8139 -0.797025 82.6951 0.532662 85.1326C1.41938 86.4631 2.74985 87.7928 5.85297 87.7928H35.9975C32.8944 87.7928 31.3428 86.4623 30.6772 85.1326Z" fill="#00C58E"/>
<path d="M98.9455 79.3672L70.1307 27.5008C69.6877 27.0578 68.1361 24.1758 65.2541 24.1758C63.9244 24.1758 61.9299 24.8406 60.3783 27.5008L56.6104 33.707V45.6766L65.2549 30.8258L93.8479 81.8055H82.9869C83.1683 82.8608 83.0131 83.9464 82.5432 84.9086L82.3213 85.1305C80.9916 87.568 77.6666 87.7898 77.2236 87.7898H94.0689C94.7338 87.7898 97.8369 87.5688 99.3885 85.1305C100.053 84.0219 100.497 82.0273 98.9455 79.3672Z" fill="#108775"/>
<path d="M83.211 85.1326V84.9107L83.4328 84.4678C83.6539 83.5811 83.8758 82.6943 83.6539 81.8076L82.768 79.1482L60.1602 39.6943L56.8352 33.71H56.6133L53.2883 39.6943L30.6805 79.1475L29.7946 81.8076C29.5793 82.9347 29.7347 84.1012 30.2375 85.1326C31.1242 86.4623 32.4539 87.7928 35.5571 87.7928H77.6711C78.336 87.7928 81.661 87.5709 83.2125 85.1326H83.211ZM56.6125 45.6787L77.2266 81.8076H35.9992L56.6125 45.6787Z" fill="#E0E0E0"/>
</svg>
