<svg width="100%" height="100%" viewBox="0 0 97 100" fill="none"
    xmlns="http://www.w3.org/2000/svg">
    <path d="M96.5941 59.8811C96.0126 58.1201 94.4895 56.8936 92.5198 56.5992C91.591 56.4606 90.5274 56.5197 89.2687 56.7792C87.0748 57.2318 85.4471 57.4042 84.2592 57.4375C88.7429 49.8674 92.3888 41.2349 94.4876 33.1087C97.8816 19.9689 96.0679 13.983 93.9486 11.2754C88.3399 4.10872 80.157 0.258717 70.285 0.140914C65.0187 0.0765197 60.3956 1.11629 57.9838 1.86402C55.7384 1.46781 53.324 1.2466 50.7907 1.20569C46.0418 1.12993 41.846 2.16516 38.2607 4.29281C36.2759 3.6216 33.0903 2.67538 29.4115 2.0716C20.7592 0.651141 13.7857 1.75796 8.68499 5.36137C2.50847 9.72425 -0.354787 17.3046 0.174758 27.8917C0.34294 31.253 2.22324 41.4803 5.18385 51.1795C6.88536 56.7545 8.69976 61.3841 10.5767 64.9409C13.2384 69.9845 16.0865 72.9545 19.2838 74.0212C21.0759 74.6182 24.332 75.0364 27.7566 72.1841C28.1907 72.7098 28.7698 73.2322 29.5384 73.7174C30.5145 74.333 31.7081 74.836 32.9001 75.1341C37.196 76.208 41.2198 75.9394 44.6528 74.4341C44.674 75.0447 44.6903 75.628 44.7039 76.1318C44.7267 76.9489 44.7494 77.75 44.7793 78.4992C44.9827 83.5652 45.3274 87.5042 46.3486 90.2602C46.4047 90.4117 46.4801 90.6428 46.5596 90.8879C47.0691 92.4477 47.921 95.0591 50.0884 97.1042C52.3327 99.2227 55.0475 99.8723 57.5338 99.8723C58.7808 99.8723 59.9706 99.7087 61.0141 99.4852C64.7338 98.6879 68.9585 97.4735 72.0145 93.122C74.9039 89.0083 76.3085 82.8125 76.5626 73.05C76.5956 72.7739 76.6259 72.5102 76.6551 72.2591L76.7157 71.7432L77.3963 71.803L77.5717 71.8148C81.3604 71.9875 85.9929 71.1841 88.838 69.8625C91.0861 68.8193 98.2903 65.0159 96.5941 59.8811Z" fill="black" />
    <path d="M90.1161 60.8795C78.8509 63.2034 78.0763 59.3894 78.0763 59.3894C89.9702 41.7405 94.9426 19.3379 90.6521 13.8549C78.946 -1.10153 58.6827 5.97196 58.3445 6.15529L58.2358 6.17499C56.01 5.71287 53.5195 5.43787 50.7199 5.39203C45.6229 5.3087 41.7562 6.7284 38.8221 8.9534C38.8221 8.9534 2.6744 -5.93827 4.35584 27.6822C4.71342 34.8345 14.6074 81.8007 26.4081 67.6148C30.7214 62.4273 34.8892 58.0413 34.8892 58.0413C36.9589 59.4163 39.4369 60.1178 42.0346 59.8659L42.2365 59.6947C42.1736 60.3386 42.2024 60.9685 42.3172 61.7144C39.2771 65.111 40.1706 65.7072 34.0933 66.9583C27.9437 68.2257 31.5562 70.4818 33.9149 71.072C36.7744 71.7867 43.3896 72.7996 47.8593 66.5424L47.6812 67.2564C48.8721 68.2106 49.7085 73.4621 49.5683 78.2231C49.4282 82.9837 49.3346 86.2523 50.2729 88.8053C51.2119 91.3583 52.1471 97.1026 60.1365 95.3909C66.8119 93.9602 70.2714 90.253 70.7528 84.0689C71.0941 79.6727 71.8672 80.3227 71.9157 76.392L72.5358 74.5314C73.2505 68.572 72.6494 66.6492 76.7619 67.5436L77.7619 67.6314C80.7884 67.7689 84.7505 67.1443 87.0759 66.0636C92.0827 63.7401 95.0524 59.8602 90.1153 60.8795H90.1161Z" fill="#336791" />
    <path d="M40.938 30.8807C39.9229 30.7394 39.0035 30.8701 38.5384 31.2223C38.277 31.4204 38.196 31.65 38.174 31.8079C38.1157 32.2265 38.4088 32.6894 38.5891 32.928C39.099 33.6038 39.8437 34.0682 40.5808 34.1704C40.6876 34.1856 40.7941 34.1924 40.8998 34.1924C42.1289 34.1924 43.2467 33.2352 43.3452 32.5288C43.4683 31.6439 42.1838 31.0538 40.938 30.8807ZM74.5683 30.9087C74.4713 30.2151 73.2373 30.0174 72.066 30.1803C70.8963 30.3432 69.7623 30.8712 69.8569 31.5663C69.9327 32.1068 70.9088 33.0295 72.0641 33.0295C72.1619 33.0295 72.2604 33.0231 72.3596 33.0091C73.1308 32.9023 73.6967 32.4125 73.9657 32.1303C74.3748 31.7 74.6119 31.2204 74.5683 30.9087Z" fill="white" />
    <path d="M93.8645 60.6155C93.435 59.3167 92.0524 58.8989 89.7554 59.3731C82.9354 60.7807 80.4929 59.8057 79.691 59.2152C84.9922 51.1394 89.3532 41.3773 91.7058 32.2693C92.8202 27.9549 93.4357 23.9481 93.4861 20.6822C93.5418 17.0977 92.9312 14.4636 91.6721 12.8546C86.5956 6.36781 79.1448 2.88827 70.1259 2.79281C63.9255 2.72312 58.6869 4.30986 57.6713 4.75607C55.5327 4.22425 53.2013 3.89774 50.663 3.85607C46.0085 3.78069 41.985 4.89509 38.6539 7.16668C37.2069 6.62804 33.4675 5.34433 28.8944 4.60759C20.9884 3.33486 14.7058 4.29925 10.2225 7.47539C4.87285 11.2655 2.40316 18.0405 2.88157 27.6118C3.04255 30.8318 4.8774 40.7379 7.77285 50.2246C11.5842 62.711 15.7274 69.7796 20.0865 71.2337C20.5967 71.4038 21.185 71.5227 21.8338 71.5227C23.424 71.5227 25.3736 70.8061 27.402 68.3674C29.8761 65.3995 32.4354 62.5036 35.0766 59.6833C36.7903 60.603 38.6729 61.1167 40.5982 61.1682C40.602 61.2186 40.6069 61.269 40.6115 61.319C40.2801 61.7142 39.9555 62.1151 39.638 62.5216C38.3039 64.2152 38.0263 64.5678 33.7319 65.4519C32.5104 65.7042 29.266 66.3727 29.2183 68.647C29.1668 71.1318 33.0535 72.1754 33.4963 72.286C35.0395 72.6724 36.5263 72.8629 37.9441 72.8629C41.3922 72.8629 44.4266 71.7296 46.8516 69.5368C46.777 78.3951 47.1463 87.1239 48.21 89.7833C49.0812 91.9606 51.2092 97.2814 57.9312 97.2811C58.9176 97.2811 60.0032 97.1663 61.1975 96.9102C68.213 95.4064 71.2596 92.3057 72.438 85.4697C73.0687 81.8163 74.1509 73.0924 74.66 68.4129C75.7342 68.7481 77.1172 68.9015 78.6122 68.9011C81.7304 68.9011 85.3285 68.2386 87.585 67.1913C90.1198 66.014 94.6941 63.1254 93.8645 60.6155ZM77.1577 28.9943C77.1346 30.3758 76.9444 31.6299 76.7429 32.939C76.5259 34.347 76.3016 35.8027 76.2452 37.5697C76.1895 39.2894 76.4043 41.0773 76.6119 42.8065C77.0316 46.2989 77.4622 49.8943 75.7952 53.4421C75.5183 52.9514 75.2716 52.4443 75.0566 51.9235C74.8494 51.4212 74.3994 50.6144 73.7763 49.4977C71.3524 45.1508 65.6763 34.9712 68.5819 30.8174C69.4475 29.5811 71.6441 28.3099 77.1577 28.9943ZM70.4744 5.59016C78.5554 5.76857 84.9479 8.79168 89.4736 14.575C92.9448 19.011 89.1225 39.1955 78.0569 56.6087C77.9457 56.4672 77.8338 56.3262 77.7213 56.1856L77.5812 56.0106C80.4407 51.2883 79.8816 46.6159 79.3838 42.4735C79.1793 40.7735 78.9861 39.1678 79.0354 37.6595C79.0861 36.061 79.2975 34.6898 79.502 33.364C79.7532 31.7303 80.0088 30.0398 79.9384 28.047C79.991 27.8379 80.0122 27.5909 79.9846 27.2977C79.8047 25.3868 77.6229 19.6674 73.1759 14.4909C70.7433 11.6595 67.196 8.49092 62.3524 6.3538C64.4357 5.92198 67.2846 5.51933 70.4744 5.59016ZM25.2554 66.5826C23.0206 69.2697 21.4774 68.7546 20.9698 68.5856C17.663 67.4826 13.8259 60.4932 10.4429 49.4099C7.51566 39.8197 5.80505 30.1761 5.66944 27.472C5.24217 18.9197 7.31528 12.9595 11.8316 9.75645C19.1816 4.54433 31.2657 7.66403 36.1213 9.24622C36.0516 9.31516 35.9789 9.37956 35.91 9.44963C27.9418 17.4966 28.1308 31.2451 28.1505 32.0856C28.1497 32.4099 28.177 32.8689 28.2141 33.5004C28.3513 35.8129 28.6066 40.1167 27.9247 44.9905C27.2914 49.5197 28.6876 53.9527 31.7547 57.153C32.0694 57.4809 32.4003 57.7929 32.746 58.0879C31.3808 59.55 28.4138 62.7833 25.2554 66.5826ZM33.7702 55.2216C31.2982 52.6421 30.1755 49.0542 30.6895 45.3769C31.4092 40.2284 31.1437 35.7443 31.0009 33.3352C30.9808 32.9981 30.963 32.7027 30.9528 32.4697C32.1168 31.4375 37.5111 28.5474 41.3581 29.4288C43.1134 29.8307 44.1831 31.0261 44.6278 33.0822C46.9293 43.7273 44.9323 48.164 43.3278 51.7296C42.9971 52.464 42.6846 53.1583 42.4179 53.8765L42.2111 54.4318C41.6876 55.8356 41.2005 57.1409 40.8986 58.3803C38.2706 58.3727 35.7141 57.25 33.7702 55.2212V55.2216ZM34.1736 69.5777C33.4062 69.386 32.716 69.053 32.3111 68.7769C32.6494 68.6178 33.2513 68.4011 34.2952 68.186C39.3471 67.1462 40.1274 66.4121 41.8312 64.2489C42.2217 63.7527 42.6645 63.1905 43.2778 62.5057L43.2785 62.5049C44.1918 61.4822 44.6096 61.6557 45.3672 61.9701C45.9812 62.2239 46.5793 62.9936 46.8217 63.8405C46.9365 64.2405 47.0653 64.9996 46.6437 65.5905C43.0846 70.5739 37.8982 70.5099 34.1736 69.5777ZM60.6126 94.1807C54.4323 95.5049 52.2441 92.3515 50.802 88.7466C49.8713 86.4193 49.4138 75.9246 49.7384 64.3349C49.7426 64.1807 49.7206 64.0318 49.6782 63.8917C49.6402 63.6149 49.5825 63.3412 49.5054 63.0727C49.0229 61.3864 47.8467 59.9758 46.4357 59.3909C45.8751 59.1587 44.8463 58.7326 43.61 59.0489C43.8736 57.9625 44.3308 56.7356 44.8266 55.4072L45.0346 54.8485C45.2687 54.2186 45.5626 53.5659 45.8732 52.875C47.5524 49.1447 49.852 44.0352 47.3562 32.4924C46.4213 28.1689 43.2994 26.0576 38.5668 26.5481C35.7297 26.8417 33.1338 27.9864 31.8391 28.6428C31.5607 28.7837 31.3062 28.9201 31.0683 29.0527C31.4297 24.6966 32.7948 16.5557 37.9016 11.4049C41.1172 8.16251 45.3994 6.561 50.6168 6.64736C60.8971 6.81554 67.4895 12.0913 71.21 16.4879C74.416 20.2761 76.152 24.0924 76.8448 26.1508C71.6346 25.6208 68.091 26.6493 66.2948 29.2174C62.3869 34.8038 68.4327 45.6462 71.3384 50.8572C71.8713 51.8121 72.3312 52.6375 72.4759 52.9883C73.4221 55.2815 74.6471 56.8125 75.5414 57.9299C75.8157 58.2724 76.0816 58.6046 76.2838 58.8947C74.7058 59.3496 71.8713 60.4008 72.1297 65.6549C71.9213 68.2913 70.4399 80.6345 69.6872 84.9955C68.6937 90.7568 66.5736 92.9027 60.6126 94.1811V94.1807ZM86.4096 64.6595C84.796 65.4083 82.0956 65.9701 79.5304 66.0909C76.6971 66.2235 75.2547 65.7735 74.9153 65.4966C74.7562 62.2224 75.9747 61.8803 77.2645 61.5182C77.4672 61.4614 77.6649 61.4057 77.8558 61.339C77.9744 61.4356 78.1043 61.5314 78.2467 61.6254C80.524 63.1284 84.5857 63.2905 90.3202 62.1068L90.3831 62.0943C89.6096 62.8174 88.2861 63.7879 86.4096 64.6595Z" fill="white" />
</svg>
