<svg width="100%" height="100%" viewBox="0 0 100 100" fill="none" xmlns="http://www.w3.org/2000/svg">
<path d="M81.7533 34.5226C80.721 34.1615 79.6799 33.8269 78.6311 33.5192C78.8073 32.7851 78.9695 32.0599 79.1135 31.3475C81.4771 19.6481 79.9319 10.2228 74.6541 7.1196C69.5938 4.14463 61.3182 7.24672 52.9602 14.6637C52.1365 15.3959 51.3311 16.1493 50.5447 16.9231C50.0183 16.4086 49.4825 15.904 48.9378 15.4097C40.1782 7.47931 31.3982 4.1369 26.1261 7.24903C21.0704 10.2333 19.5733 19.0937 21.7012 30.1814C21.9129 31.2796 22.152 32.372 22.4181 33.4578C21.1753 33.8179 19.9761 34.2011 18.8284 34.6091C8.55849 38.2602 2 43.9818 2 49.9167C2 56.0463 9.04084 62.1945 19.7374 65.9224C20.6046 66.2234 21.479 66.5023 22.3598 66.7589C22.0738 67.9283 21.8198 69.1056 21.5982 70.2895C19.5695 81.1848 21.1537 89.8358 26.1958 92.8011C31.4035 95.8634 40.1441 92.7161 48.6547 85.1299C49.3448 84.5131 50.0197 83.8789 50.6788 83.2279C51.5304 84.0657 52.4048 84.8792 53.3009 85.6674C61.5451 92.9008 69.6871 95.8217 74.7242 92.8483C79.927 89.7771 81.6181 80.4836 79.4227 69.1768C79.2497 68.2909 79.0558 67.4095 78.841 66.5333C79.4549 66.3478 80.0573 66.157 80.6446 65.9584C91.7648 62.2018 99 56.1282 99 49.9167C99 43.9602 92.2297 38.1999 81.7533 34.5226ZM79.3416 61.948C78.8106 62.1267 78.2675 62.2999 77.7123 62.4676C76.4846 58.5047 74.8281 54.2911 72.8005 49.9372C74.7352 45.6872 76.3281 41.5273 77.5213 37.5903C78.5137 37.8831 79.4765 38.1918 80.4048 38.5175C89.3811 41.6687 94.8563 46.327 94.8563 49.9167C94.8563 53.7401 88.9431 58.7037 79.3416 61.948ZM75.3578 69.9974C76.3285 74.9969 76.4668 79.5173 75.8238 83.0513C75.2464 86.2268 74.0846 88.3437 72.6478 89.1917C69.5912 90.9961 63.0539 88.6508 56.0036 82.4644C55.1702 81.7316 54.3569 80.9753 53.5646 80.1965C56.298 77.1485 59.0296 73.6052 61.6955 69.6698C66.3849 69.2455 70.8151 68.5516 74.8326 67.6047C75.0309 68.4191 75.206 69.2167 75.3578 69.9974ZM35.0694 88.88C32.0829 89.9552 29.7041 89.9861 28.2662 89.1407C25.2065 87.3415 23.9345 80.3951 25.6695 71.0776C25.8758 69.9766 26.1119 68.8816 26.3777 67.794C30.3509 68.6903 34.7489 69.3348 39.4492 69.7235C42.1334 73.5743 44.9437 77.1137 47.776 80.2131C47.1741 80.807 46.5579 81.3857 45.9281 81.9487C42.1644 85.303 38.3932 87.683 35.0694 88.88ZM21.0779 61.9244C16.348 60.2758 12.4419 58.1334 9.76455 55.7956C7.35849 53.6949 6.1441 51.609 6.1441 49.9167C6.1441 46.3151 11.4098 41.7212 20.1924 38.5991C21.2583 38.2204 22.3738 37.863 23.5313 37.5277C24.7454 41.5536 26.3375 45.7629 28.259 50.0195C26.3125 54.339 24.6976 58.6156 23.4719 62.689C22.6679 62.4541 21.8697 62.1992 21.0779 61.9244ZM25.768 29.3697C23.9451 19.8703 25.1557 12.7044 28.2025 10.9059C31.4475 8.99036 38.6232 11.7215 46.1865 18.5694C46.6797 19.0169 47.165 19.4735 47.6419 19.939C44.8236 23.0249 42.039 26.5381 39.3787 30.3661C34.8167 30.7973 30.4498 31.4896 26.4349 32.4173C26.1875 31.4074 25.9651 30.391 25.768 29.3697ZM67.6095 39.9053C66.6612 38.2351 65.6777 36.5859 64.6597 34.9588C67.7546 35.3579 70.72 35.8876 73.5045 36.5351C72.6687 39.2675 71.6267 42.1238 70.4002 45.0524C69.5037 43.318 68.5732 41.6019 67.6095 39.9053ZM50.5466 22.9592C52.4578 25.0707 54.372 27.4278 56.2548 29.9855C52.4355 29.8016 48.6097 29.8008 44.7903 29.9832C46.6749 27.4491 48.6055 25.095 50.5466 22.9592ZM33.3742 39.9339C32.4225 41.6168 31.5095 43.3222 30.6358 45.0486C29.4294 42.1304 28.3969 39.2609 27.5538 36.4899C30.3213 35.8586 33.2726 35.3424 36.3479 34.9507C35.3186 36.5877 34.3271 38.2495 33.3742 39.9339ZM36.4361 65.1829C33.259 64.8213 30.2634 64.3318 27.4966 63.7175C28.3529 60.8971 29.4082 57.9665 30.6408 54.9857C31.5178 56.7134 32.4347 58.4198 33.3905 60.1035C34.3734 61.8344 35.3911 63.5297 36.4361 65.1829ZM50.661 77.1717C48.6968 75.0112 46.7378 72.6208 44.8247 70.0499C46.6821 70.1241 48.5755 70.162 50.5 70.162C52.4771 70.162 54.4315 70.1168 56.3552 70.0295C54.4664 72.6467 52.5594 75.0405 50.661 77.1717ZM70.4392 54.8335C71.7358 57.8471 72.8286 60.7622 73.6963 63.5344C70.884 64.1888 67.8475 64.7158 64.648 65.1072C65.6733 63.45 66.6661 61.7721 67.6258 60.0745C68.6017 58.349 69.5397 56.6016 70.4392 54.8335ZM64.0364 57.9634C62.567 60.566 61.0151 63.1193 59.3831 65.6191C56.4267 65.8328 53.4638 65.9388 50.5 65.9371C47.4813 65.9371 44.5451 65.8413 41.7177 65.6543C40.043 63.1603 38.4614 60.6026 36.9765 57.9866C35.4983 55.3846 34.1181 52.7262 32.838 50.0172C34.1149 47.3075 35.4913 44.6479 36.9643 42.0438L36.964 42.0442C38.4363 39.4394 40.0052 36.8926 41.6673 34.4094C44.5519 34.1868 47.5101 34.0709 50.4996 34.0709C53.5028 34.0709 56.4651 34.188 59.349 34.4121C60.9943 36.8916 62.5532 39.4297 64.0228 42.0214C65.5006 44.6198 66.8952 47.2665 68.2044 49.9573C66.9086 52.6755 65.5184 55.3459 64.0364 57.9634ZM72.5846 10.7796C75.8325 12.6898 77.0958 20.3926 75.055 30.494C74.9242 31.139 74.7789 31.7945 74.6193 32.4606C70.5945 31.5132 66.2246 30.8089 61.6493 30.3711C58.9841 26.501 56.2222 22.9824 53.4498 19.9363C54.1764 19.2222 54.9203 18.5265 55.6808 17.85C62.8421 11.4955 69.5351 8.9865 72.5846 10.7796ZM50.5 41.0845C55.2837 41.0845 59.1618 45.0389 59.1618 49.9167C59.1618 54.7945 55.2837 58.7489 50.5 58.7489C45.7163 58.7489 41.8382 54.7945 41.8382 49.9167C41.8382 45.0389 45.7163 41.0845 50.5 41.0845Z" fill="#00D8FF"/>
</svg>
