<svg width="100%" height="100%" viewBox="0 0 134 100" fill="none"
    xmlns="http://www.w3.org/2000/svg">
    <path d="M114.733 57.5594C110.094 57.5833 106.063 58.7005 102.687 60.3521C101.448 57.899 100.21 55.7135 99.9914 54.1104C99.7481 52.2406 99.457 51.099 99.7481 48.8646C100.04 46.6302 101.351 43.4484 101.327 43.2057C101.303 42.963 101.035 41.8214 98.3638 41.7974C95.6924 41.7729 93.3851 42.3073 93.1179 43.0115C92.8507 43.7156 92.3408 45.3188 92.0007 46.9698C91.5393 49.399 86.658 58.0688 83.8653 62.6104C82.9664 60.838 82.1893 59.2833 82.019 58.0448C81.7763 56.175 81.4846 55.0333 81.7762 52.799C82.0679 50.5646 83.3794 47.3833 83.3549 47.1401C83.3304 46.8974 83.0632 45.7557 80.3919 45.7318C77.72 45.7073 75.4127 46.2417 75.146 46.9458C74.8789 47.6505 74.5872 49.3016 74.0289 50.9047C73.47 52.5078 66.9856 66.9828 65.2856 70.7224C64.5986 72.236 63.878 73.7341 63.1242 75.2156C63.1242 75.2156 63.0997 75.2885 63.0268 75.4099C62.79 75.8744 62.5472 76.3359 62.2986 76.7943V76.8182C61.9341 77.4745 61.5455 78.0812 61.3513 78.0812C61.2054 78.0812 60.9382 76.3328 61.3997 73.9526C62.371 68.9255 64.6783 61.1052 64.6544 60.838C64.6544 60.6922 65.0914 59.3323 63.1486 58.6276C61.2539 57.9234 60.5742 59.0891 60.4039 59.0891C60.2341 59.0891 60.1122 59.5021 60.1122 59.5021C60.1122 59.5021 62.2257 50.7104 56.0809 50.7104C52.244 50.7104 46.9492 54.912 44.3263 58.7005C41.3445 60.3231 38.3654 61.9504 35.3888 63.5823C33.9565 64.3839 32.4747 65.1854 31.0903 65.938C30.9929 65.8411 30.896 65.7193 30.7986 65.6224C23.3669 57.6807 9.62104 52.0703 10.2039 41.4089C10.4226 37.5229 11.758 27.3224 36.6033 14.9365C57.0523 4.85729 73.3247 7.65 76.1419 13.8432C80.1731 22.6839 67.4231 39.1016 46.2934 41.4813C38.2304 42.3802 34.0044 39.2714 32.9361 38.1057C31.819 36.8911 31.6486 36.8182 31.2356 37.0615C30.5559 37.426 30.9929 38.5188 31.2356 39.15C31.8674 40.801 34.4658 43.7156 38.8617 45.149C42.7476 46.4115 52.195 47.1161 63.6341 42.6958C76.433 37.7411 86.4393 23.9708 83.5007 12.4349C80.5617 0.728648 61.1325 -3.13281 42.7476 3.4C31.819 7.28646 19.9669 13.4063 11.4424 21.3724C1.31479 30.8438 -0.288332 39.0771 0.367398 42.526C2.72365 54.7661 19.6028 62.7323 26.3544 68.6338C26.0143 68.8281 25.6981 68.9984 25.4315 69.1443C22.0554 70.8198 9.18354 77.5469 5.97781 84.663C2.33511 92.726 6.56115 98.5068 9.35385 99.2833C18.0242 101.688 26.9372 97.3651 31.7216 90.2245C36.5059 83.0844 35.9231 73.8068 33.7132 69.5568C33.6888 69.5083 33.6648 69.4594 33.6158 69.4109C34.4903 68.901 35.3888 68.3667 36.2632 67.8568C37.8705 66.9067 39.4981 65.9915 41.145 65.112C40.319 67.3708 39.7117 70.0667 39.4205 73.9526C39.0559 78.5187 40.9257 84.4443 43.3789 86.7755C44.4721 87.7963 45.7591 87.8203 46.5851 87.8203C49.4507 87.8203 50.7382 85.4401 52.171 82.6229C53.9195 79.1745 55.4981 75.1672 55.4981 75.1672C55.4981 75.1672 53.5309 85.999 58.8742 85.999C60.8169 85.999 62.7841 83.4729 63.6585 82.1859V82.2099C63.6585 82.2099 63.707 82.137 63.8044 81.9672C63.9986 81.6516 64.12 81.4568 64.12 81.4568V81.4088C64.8971 80.0484 66.646 76.9641 69.2445 71.8396C72.596 65.2339 75.8263 56.9766 75.8263 56.9766C75.8263 56.9766 76.1179 58.9922 77.1132 62.3438C77.6966 64.3109 78.9101 66.4724 79.882 68.5609C79.1049 69.6542 78.619 70.2609 78.619 70.2609L78.6434 70.2854C78.0117 71.1109 77.332 72.0094 76.5789 72.8844C73.9315 76.0411 70.7747 79.6604 70.3372 80.7042C69.8268 81.9427 69.9486 82.8417 70.9205 83.5703C71.6247 84.1047 72.8872 84.1771 74.1747 84.1047C76.5549 83.9344 78.2304 83.3516 79.0559 82.9875C80.3434 82.526 81.8492 81.8213 83.2575 80.7771C85.8565 78.8583 87.4346 76.1141 87.2893 72.4958C87.2164 70.5042 86.5606 68.5125 85.7591 66.6422C86.0023 66.3026 86.2205 65.9625 86.4637 65.6224C90.5679 59.6234 93.7497 53.0417 93.7497 53.0417C93.7497 53.0417 94.0414 55.0573 95.0367 58.4094C95.5226 60.1094 96.5184 61.9552 97.3924 63.7521C93.5309 66.8854 91.1507 70.5281 90.3007 72.9083C88.771 77.3286 89.9606 79.3198 92.2195 79.7812C93.2393 80 94.6966 79.5141 95.7653 79.0526C97.1252 78.6156 98.7283 77.863 100.259 76.7453C102.858 74.8271 105.359 72.1552 105.213 68.537C105.14 66.8854 104.703 65.2578 104.096 63.6792C107.374 62.3198 111.6 61.5667 116.991 62.1979C128.552 63.5578 130.835 70.7708 130.398 73.8073C129.961 76.8427 127.532 78.4943 126.731 79.0042C125.929 79.5146 125.662 79.6844 125.735 80.0484C125.832 80.5828 126.221 80.5588 126.901 80.4615C127.848 80.2917 132.973 78.0083 133.191 72.4224C133.555 65.2823 126.755 57.4865 114.733 57.5594ZM25.5528 87.626C21.7153 91.8031 16.3726 93.3818 14.0653 92.0464C11.5882 90.613 12.5596 84.4443 17.271 80.0245C20.1367 77.3286 23.8283 74.8266 26.2815 73.2969C26.8398 72.9568 27.6658 72.4714 28.6617 71.8641C28.8315 71.7667 28.9289 71.7182 28.9289 71.7182L29.5117 71.3536C31.2356 77.6682 29.5846 83.2302 25.5528 87.626ZM53.4825 68.6338C52.1466 71.8885 49.3539 80.2187 47.6539 79.7573C46.1966 79.3687 45.2976 73.0542 47.3622 66.8125C48.4065 63.6792 50.6164 59.9391 51.9039 58.4823C53.9924 56.1505 56.2997 55.3729 56.858 56.3208C57.5627 57.5594 54.308 66.5937 53.4825 68.6338ZM76.5304 79.6599C75.9716 79.9516 75.4377 80.1458 75.1945 80C75.0247 79.9026 75.4377 79.5141 75.4377 79.5141C75.4377 79.5141 78.3278 76.4057 79.469 74.9969C80.1252 74.1714 80.9018 73.2 81.7278 72.1068V72.4224C81.7278 76.1385 78.133 78.6401 76.5299 79.6599H76.5304ZM94.308 75.6042C93.895 75.3125 93.9679 74.3411 95.3523 71.3052C95.8867 70.1151 97.1492 68.124 99.3111 66.2052C99.5539 66.9823 99.7242 67.7354 99.6997 68.4396C99.6752 73.1271 96.3242 74.8755 94.308 75.6042Z" fill="#CD6799" />
</svg>
