<svg width="100%" height="100%" viewBox="0 0 87 100" fill="none"
  xmlns="http://www.w3.org/2000/svg">
  <path d="M73.9927 31.8791V67.8905L43.3927 85.9946L43.116 86.2463V99.7054L43.3927 99.9662L86.4883 75.073V24.8932L86.0812 24.7936L73.9315 31.5861L73.9927 31.8791Z" fill="#2F406A" />
  <path d="M12.6943 68.1855L43.3926 85.9946V99.9662L0.00177002 74.9747V24.9915L0.44704 24.9243L12.5616 31.9676L12.6943 32.3709V68.1855Z" fill="#2379BD" />
  <path d="M12.6943 32.3709L0.00177002 24.9916L43.2943 0L86.4883 24.8932L73.9927 31.8791L43.2943 14.3652L12.6943 32.3709Z" fill="#03AFEF" />
  <path d="M42.8659 64.0669L42.5335 63.7277V50.2054L42.8659 50.0338L42.9467 49.7003L54.5396 42.9378L54.8943 43.0172V56.9503L42.8659 64.0669Z" fill="#2F406A" />
  <path d="M30.6369 57.3845V42.9172L30.9731 42.9007L42.7656 49.7635L42.866 50.0338V64.0669L30.6369 57.3845Z" fill="#2379BD" />
  <path d="M42.6653 35.8003L30.6369 42.9172L42.866 50.0338L54.8943 43.0172L42.6653 35.8003Z" fill="#03AFEF" />
  <path d="M27.897 72.8878L27.5649 72.5487V59.026L27.897 58.8547L27.9781 58.5213L39.5707 51.7588L39.9254 51.8382V65.771L27.897 72.8878Z" fill="#2F406A" />
  <path d="M15.6683 66.2054V51.7378L16.0041 51.7213L27.7967 58.5845L27.8971 58.8547V72.8878L15.6683 66.2054Z" fill="#2379BD" />
  <path d="M27.6967 44.6213L15.6683 51.7378L27.8971 58.8547L39.9254 51.8382L27.6967 44.6213Z" fill="#03AFEF" />
  <path d="M58.9038 73.222L58.5714 72.8828V59.3601L58.9038 59.1889L58.9845 58.8554L70.5774 52.0929L70.9322 52.1723V66.1051L58.9038 73.222Z" fill="#2F406A" />
  <path d="M46.6747 66.5395V52.072L47.0109 52.0554L58.8035 58.9186L58.9038 59.1889V73.222L46.6747 66.5395Z" fill="#2379BD" />
  <path d="M58.7031 44.9554L46.6747 52.072L58.9038 59.1888L70.9322 52.1723L58.7031 44.9554Z" fill="#03AFEF" />
  <path d="M43.9349 82.0429L43.6028 81.7037V68.1811L43.9349 68.0098L44.016 67.676L55.6089 60.9138L55.9633 60.9932V74.926L43.9349 82.0429Z" fill="#2F406A" />
  <path d="M31.7062 75.3605V60.8929L32.042 60.8763L43.8349 67.7392L43.9349 68.0098V82.0429L31.7062 75.3605Z" fill="#2379BD" />
  <path d="M43.7346 53.776L31.7062 60.8929L43.9349 68.0098L55.9633 60.9932L43.7346 53.776Z" fill="#03AFEF" />
  <path d="M42.8659 44.8885L42.5335 44.549V31.0267L42.8659 30.8554L42.9467 30.5216L54.5396 23.7595L54.8943 23.8389V37.7716L42.8659 44.8885Z" fill="#2F406A" />
  <path d="M30.6369 38.2061V23.7385L30.9731 23.722L42.7656 30.5848L42.866 30.8554V44.8885L30.6369 38.2061Z" fill="#2379BD" />
  <path d="M42.6653 16.6216L30.6369 23.7385L42.866 30.8554L54.8943 23.8389L42.6653 16.6216Z" fill="#03AFEF" />
  <path d="M27.897 53.7091L27.5649 53.3699V39.8476L27.897 39.676L27.9781 39.3426L39.5707 32.5801L39.9254 32.6595V46.5926L27.897 53.7091Z" fill="#2F406A" />
  <path d="M15.6683 47.0267V32.5595L16.0041 32.5429L27.7967 39.4057L27.8971 39.676V53.7091L15.6683 47.0267Z" fill="#2379BD" />
  <path d="M27.6967 25.4426L15.6683 32.5595L27.8971 39.676L39.9254 32.6595L27.6967 25.4426Z" fill="#03AFEF" />
  <path d="M58.9038 54.0432L58.5714 53.7041V40.1818L58.9038 40.0101L58.9845 39.6767L70.5774 32.9142L70.9322 32.9936V46.9267L58.9038 54.0432Z" fill="#2F406A" />
  <path d="M46.6747 47.3608V32.8936L47.0109 32.877L58.8035 39.7399L58.9038 40.0101V54.0432L46.6747 47.3608Z" fill="#2379BD" />
  <path d="M58.7031 25.7767L46.6747 32.8936L58.9038 40.0101L70.9322 32.9936L58.7031 25.7767Z" fill="#03AFEF" />
  <path d="M43.9349 62.8642L43.6028 62.525V49.0024L43.9349 48.8311L44.016 48.4976L55.6089 41.7351L55.9633 41.8145V55.7473L43.9349 62.8642Z" fill="#2F406A" />
  <path d="M31.7062 56.1818V41.7142L32.042 41.6976L43.8349 48.5608L43.9349 48.8311V62.8642L31.7062 56.1818Z" fill="#2379BD" />
  <path d="M43.7346 34.5973L31.7062 41.7142L43.9349 48.8311L55.9633 41.8145L43.7346 34.5973Z" fill="#03AFEF" />
</svg>
