<svg width="100%" height="100%" viewBox="0 0 100 100" fill="none" xmlns="http://www.w3.org/2000/svg">
<path d="M92.5859 20.63L52.7492 91.8644C52.5621 92.1994 52.2893 92.4787 51.9588 92.6736C51.6283 92.8685 51.2519 92.9721 50.8682 92.9736C50.4844 92.9751 50.1072 92.8746 49.7751 92.6824C49.443 92.4902 49.168 92.2131 48.9783 91.8796L8.35348 20.6361C8.14923 20.2786 8.05118 19.8703 8.07083 19.4591C8.09047 19.0479 8.22701 18.6508 8.46441 18.3144C8.7018 17.978 9.03022 17.7164 9.4111 17.5601C9.79199 17.4038 10.2096 17.3594 10.6148 17.4321L50.4939 24.5616C50.7474 24.6082 51.0073 24.6082 51.2608 24.5616L90.3064 17.4442C90.71 17.3704 91.1263 17.413 91.5068 17.5668C91.8872 17.7206 92.216 17.9794 92.455 18.3131C92.6939 18.6467 92.8331 19.0413 92.8562 19.451C92.8794 19.8607 92.7856 20.2716 92.5859 20.63Z" fill="url(#paint0_linear_33_3)"/>
<path d="M69.4877 8.08375L40.0118 13.8583C39.7766 13.9058 39.5635 14.0296 39.4057 14.2104C39.2479 14.3912 39.1541 14.6191 39.1388 14.8586L37.3261 45.4863C37.3161 45.6544 37.3455 45.8224 37.4118 45.9771C37.4781 46.1318 37.5796 46.2689 37.7082 46.3775C37.8368 46.4861 37.989 46.5632 38.1526 46.6027C38.3162 46.6421 38.4868 46.6429 38.6508 46.6049L46.8564 44.7103C47.0332 44.6695 47.2174 44.6738 47.3921 44.7227C47.5668 44.7717 47.7264 44.8638 47.8561 44.9906C47.9859 45.1174 48.0818 45.2747 48.1348 45.4482C48.1879 45.6217 48.1965 45.8058 48.1598 45.9835L45.7227 57.9236C45.6851 58.1074 45.6959 58.2978 45.7541 58.4762C45.8123 58.6545 45.9159 58.8147 46.0547 58.941C46.1935 59.0672 46.3627 59.1552 46.5458 59.1963C46.7288 59.2375 46.9194 59.2303 47.0989 59.1755L52.1671 57.6356C52.3469 57.5806 52.5378 57.5734 52.7212 57.6146C52.9046 57.6558 53.0741 57.7441 53.213 57.8708C53.3518 57.9974 53.4553 58.1581 53.5133 58.3369C53.5712 58.5157 53.5816 58.7065 53.5433 58.8905L49.6664 77.6449C49.4239 78.818 50.9849 79.4576 51.6367 78.4542L52.0701 77.7813L76.0928 29.8421C76.183 29.6614 76.2208 29.4592 76.2021 29.2582C76.1833 29.0571 76.1087 28.8654 75.9866 28.7046C75.8646 28.5437 75.7 28.4203 75.5115 28.3481C75.3229 28.2759 75.1179 28.2579 74.9197 28.2961L66.4716 29.9239C66.2897 29.9587 66.102 29.9463 65.9263 29.8878C65.7507 29.8293 65.593 29.7267 65.4683 29.5899C65.3436 29.453 65.2561 29.2864 65.2141 29.1061C65.1722 28.9258 65.1773 28.7377 65.2288 28.5598L70.7396 9.44478C70.7915 9.26638 70.7967 9.0776 70.7545 8.89664C70.7123 8.71568 70.6242 8.54863 70.4987 8.41158C70.3732 8.27453 70.2146 8.1721 70.038 8.11415C69.8615 8.0562 69.673 8.04469 69.4907 8.08072" fill="url(#paint1_linear_33_3)"/>
<defs>
<linearGradient id="paint0_linear_33_3" x1="7.3608" y1="14.8854" x2="56.9374" y2="82.2144" gradientUnits="userSpaceOnUse">
<stop stop-color="#41D1FF"/>
<stop offset="1" stop-color="#BD34FE"/>
</linearGradient>
<linearGradient id="paint1_linear_33_3" x1="48.2022" y1="9.65025" x2="57.1704" y2="71.171" gradientUnits="userSpaceOnUse">
<stop stop-color="#FFEA83"/>
<stop offset="0.083" stop-color="#FFDD35"/>
<stop offset="1" stop-color="#FFA800"/>
</linearGradient>
</defs>
</svg>
