<svg width="100%" height="100%" viewBox="0 0 100 100" fill="none" xmlns="http://www.w3.org/2000/svg">
<path d="M13.7611 33.8482L32.6919 85.6981C19.4496 79.2822 10.3293 65.7042 10.3293 50C10.3293 44.2368 11.5603 38.7907 13.7611 33.8482ZM76.7829 48.0044C76.7829 43.0991 75.0297 39.7047 73.519 37.0562C71.5046 33.7922 69.6209 31.0133 69.6209 27.7493C69.6209 24.0938 72.3813 20.6993 76.2793 20.6993C76.4472 20.6993 76.615 20.7179 76.8015 20.7366C69.7329 14.2646 60.3327 10.3106 50 10.3106C36.1423 10.3106 23.9445 17.4167 16.8385 28.197C17.7711 28.2343 18.6477 28.253 19.3937 28.253C23.5343 28.253 29.9688 27.7493 29.9688 27.7493C32.1137 27.6188 32.3561 30.7708 30.23 31.0133C30.23 31.0133 28.0851 31.2558 25.6978 31.3863L40.1523 74.3583L48.8437 48.3214L42.6702 31.3863C40.5253 31.2558 38.5109 31.0133 38.5109 31.0133C36.3662 30.8828 36.6272 27.6188 38.7535 27.7493C38.7535 27.7493 45.2999 28.253 49.1981 28.253C53.3386 28.253 59.7732 27.7493 59.7732 27.7493C61.9181 27.6188 62.1605 30.7708 60.0343 31.0133C60.0343 31.0133 57.8894 31.2558 55.5021 31.3863L69.8447 74.0412L73.7988 60.8176C75.4773 55.3342 76.7829 51.3988 76.7829 48.0044ZM50.6902 53.4691L38.7907 88.0668C42.3531 89.1112 46.102 89.6894 50 89.6894C54.6254 89.6894 59.0458 88.8875 63.1677 87.4326C63.0558 87.2647 62.9625 87.0782 62.8879 86.8917L50.6902 53.4691ZM84.8215 30.9573C84.9893 32.2256 85.0826 33.5685 85.0826 35.0419C85.0826 39.0705 84.3365 43.5841 82.0611 49.254L69.938 84.2993C81.7441 77.417 89.6708 64.6411 89.6708 50C89.6708 43.0991 87.9175 36.6086 84.8215 30.9573ZM96.2546 50C96.2546 75.5147 75.496 96.2546 50 96.2546C24.4854 96.2546 3.74548 75.496 3.74548 50C3.74548 24.4854 24.4854 3.74548 50 3.74548C75.496 3.74548 96.2546 24.4854 96.2546 50ZM94.1283 50C94.1283 25.6604 74.3209 5.8717 50 5.8717C25.6604 5.8717 5.8717 25.6604 5.8717 50C5.8717 74.3396 25.6791 94.1283 50 94.1283C74.3396 94.1283 94.1283 74.3396 94.1283 50Z" fill="#0073AA"/>
</svg>
